<svg xmlns="http://www.w3.org/2000/svg" enable-background="new 0 0 2012.6 456" viewBox="0 0 2012.6 456"><path d="m-243.7-246.7h2500v939.8h-2500v-939.8z" fill="none"/><path d="m1072.3 219.4c-16.8 0-28.9 5.5-41.1 11.1v126.7c11.7 1.1 18.5 1.1 29.6 1.1 40.2 0 45.8-18.4 45.8-44.2v-60.5c-.1-18.9-6.4-34.2-34.3-34.2zm-267.3-6.9c-27.9 0-34.3 15.3-34.3 34.3v10.7h68.6v-10.7c0-19-6.4-34.3-34.3-34.3zm-517.8 131.9c0 15 7.1 22.8 22.7 22.8 16.8 0 26.7-5.5 39-11.1v-30.1h-36.7c-17.3.1-25 3.3-25 18.4zm1045.1-125c-28 0-37.7 15.3-37.7 34.3v69.3c0 19.1 9.7 34.4 37.7 34.4 27.9 0 37.7-15.3 37.7-34.4v-69.4c-.1-18.9-9.9-34.2-37.7-34.2zm-1182.1 202.8h-82.3v-199h-41v-68.6h41.1v-41.2c0-55.9 23.2-89.2 89.1-89.2h54.9v68.6h-34.3c-25.7 0-27.3 9.6-27.3 27.5l-.1 34.3h62.1l-7.3 68.6h-54.9zm280.9.5h-68.5l-3-17.3c-31.3 17.3-59.2 20.1-77.6 20.1-50.3 0-77-33.6-77-80 0-54.8 31.2-74.3 87-74.3h56.8v-11.8c0-28-3.2-36.2-46.2-36.2h-70.3l6.9-68.6h76.8c94.3 0 115 29.8 115 105.3zm233.1-194.5c-42.6-7.3-54.9-8.9-75.4-8.9-36.9 0-48 8.1-48 39.4v59.2c0 31.3 11.1 39.5 48 39.5 20.5 0 32.8-1.6 75.4-9v66.9c-37.3 8.4-61.7 10.6-82.2 10.6-88.3 0-123.4-46.4-123.4-113.5v-48c0-67.1 35.1-113.6 123.4-113.6 20.6 0 44.9 2.2 82.2 10.6zm257.3 84.2h-150.8v5.5c0 31.3 11.1 39.5 48 39.5 33.1 0 53.3-1.6 95.9-9v66.9c-41.1 8.4-62.4 10.6-102.7 10.6-88.3 0-123.4-46.4-123.4-113.5v-54.9c0-58.7 26-106.7 116.5-106.7s116.5 47.5 116.5 106.7zm267.2 1.3c0 64.8-18.5 112.1-130.7 112.1-40.5 0-64.3-3.6-109-10.4v-370.6l82.2-13.7v129.6c17.8-6.6 40.8-10 61.7-10 82.2 0 95.9 36.9 95.9 96.1zm263.5 1.4c0 55.9-23.1 110.1-119.7 110.1s-120.1-54.2-120.1-110.1v-54c0-55.9 23.5-110.2 120.1-110.2s119.7 54.2 119.7 110.2zm263.3 0c0 55.9-23.1 110.1-119.7 110.1s-120.1-54.2-120.1-110.1v-54c0-55.9 23.5-110.2 120.1-110.2s119.7 54.2 119.7 110.2zm270.2 107.1h-89.1l-75.3-125.8v125.8h-82.3v-377.4l82.2-13.7v242.9l75.3-119.4h89.1l-82.3 130.3zm-390.2-202.8c-27.9 0-37.6 15.3-37.6 34.3v69.3c0 19.1 9.7 34.4 37.6 34.4s37.8-15.3 37.8-34.4v-69.4c0-18.9-9.9-34.2-37.8-34.2zm437.1 155.9c13.8 0 24.9 11.3 24.9 25.4 0 14.3-11 25.5-25 25.5-13.9 0-25.1-11.2-25.1-25.5 0-14.1 11.3-25.4 25.1-25.4zm-.1 3.9c-11.2 0-20.3 9.6-20.3 21.4 0 12.1 9.1 21.5 20.4 21.5 11.3.1 20.3-9.5 20.3-21.4s-9-21.6-20.3-21.6h-.1zm-4.7 36.2h-4.5v-28.3c2.4-.3 4.6-.7 8-.7 4.3 0 7.1.9 8.8 2.1 1.7 1.3 2.6 3.2 2.6 5.9 0 3.7-2.5 6-5.5 6.9v.2c2.5.5 4.2 2.7 4.7 6.9.7 4.4 1.3 6.1 1.8 7h-4.7c-.7-.9-1.4-3.5-1.9-7.2-.7-3.6-2.5-5-6.1-5h-3.1zm0-15.7h3.3c3.7 0 6.9-1.4 6.9-4.9 0-2.5-1.8-5-6.9-5-1.5 0-2.5.1-3.3.2z" fill="#fff"/></svg>