<?xml version="1.0" encoding="utf-8"?>
<!-- Generator: Adobe Illustrator 24.0.1, SVG Export Plug-In . SVG Version: 6.00 Build 0)  -->
<svg version="1.1" id="Layer_2_1_" xmlns="http://www.w3.org/2000/svg" xmlns:xlink="http://www.w3.org/1999/xlink" x="0px" y="0px"
	 viewBox="0 0 221.1 89.6" style="enable-background:new 0 0 221.1 89.6;" xml:space="preserve">
<style type="text/css">
	.st0{fill:#0C4A8B;}
	.st1{fill:#92A309;}
	.st2{fill:#0D5AA0;}
</style>
<image style="overflow:visible;" width="1000" height="780" xlink:href="5485CA1B.jpg"  transform="matrix(1 0 0 1 -8077 -8101.8569)">
</image>
<g>
	<path class="st0" d="M67.6,18.9c-0.2-0.3-0.4-0.1-0.7-0.1c-17.6,0-35.2,0-52.8,0c-0.1,0-0.3,0-0.7,0c7.8,5.9,15.4,11.7,23,17.6
		c-2.6,1.1-5.1,2.1-7.7,3.1c-0.7,0.3-0.8,0.5-0.5,1.2c5.2,9.6,12.1,17.7,21.5,23.6c3.5,2.2,7.3,4,11.5,4.7c3.8,0.6,7.5,0.4,10.8-2
		c2.9-2.1,4.3-5.1,4.9-8.6c0.8-4.8,0-9.5-1.4-14.1c-0.4-1.3-0.8-2.6-1.4-4c-0.2,0.3-0.1,0.5,0,0.8c0.9,3.9,1.5,7.9,1.2,11.9
		c-0.2,2.9-0.8,5.7-2.4,8.2c-1.3,2-3,3.5-5.2,4.3c-0.4-0.2-0.2-0.6-0.2-0.8c0-14.9,0-29.8,0-44.7C67.4,19.5,67.3,19.2,67.6,18.9z"/>
	<path class="st1" d="M64,88.1c-3.2-0.1-6.3-0.9-9.3-2c-7.1-2.6-13.3-6.8-18.9-11.8c-9-8-16.1-17.4-21.2-28.3
		c-0.2-0.5-0.4-0.6-0.9-0.4c-1.8,0.8-3.7,1.5-5.6,2.3c0,0-0.1,0-0.2,0c0.2-1.2,0.3-2.5,0.5-3.7c1.1-7.9,2.1-15.7,3.2-23.6
		c0.1-0.6,0.4-1.3,0.1-1.7c-0.3-0.4-1.1-0.1-1.7-0.1c-1.3,0-2.7,0-4,0c-0.5,0-0.7,0.2-0.7,0.7c0,0.1,0,0.2,0,0.3
		c0,19.9,0,39.8,0,59.8c0,0.8,0.2,1,1,1c10.3,0,20.5,0,30.8,0c0.6,0,1.1,0.2,1.6,0.5c5.4,3.6,11.2,6.1,17.7,7
		c2.6,0.4,5.1,0.4,7.7,0.4C64.1,88.3,64.1,88.2,64,88.1z"/>
	<path class="st0" d="M13.4,15.7c1,0,2.1,0,3.1,0c0.4,0,0.6-0.1,0.6-0.5c0-2.1,0-4.1,0-6.2c0-0.5-0.2-0.5-0.6-0.5
		c-2.1,0-4.1,0-6.2,0C9.9,8.4,9.7,8.5,9.7,9c0,2.1,0,4.1,0,6.2c0,0.5,0.2,0.5,0.6,0.5C11.3,15.6,12.4,15.7,13.4,15.7z"/>
	<path class="st1" d="M4.3,8.9C3.6,9,2.6,8.5,2.1,9.1c-0.5,0.5-0.1,1.5-0.1,2.3c0,0.6,0,1.2,0,1.8c0,0.5,0.1,0.7,0.6,0.7
		c1.3,0,2.6,0,3.9,0c0.4,0,0.6-0.1,0.6-0.6c0-1.3,0-2.5,0-3.8C7,9,6.8,8.9,6.4,8.9C5.7,8.9,5.1,8.9,4.3,8.9z"/>
	<path class="st1" d="M11.1,6c0.7,0,1.3,0,2,0c0.4,0,0.6-0.1,0.6-0.5c0-1.2,0-2.4,0-3.6c0-0.3-0.1-0.5-0.5-0.4c-1.3,0-2.7,0-4,0
		C8.7,1.5,8.6,1.6,8.6,2c0,1.2,0,2.3,0,3.5C8.6,5.8,8.7,6,9.1,6C9.8,5.9,10.4,6,11.1,6C11.1,6,11.1,6,11.1,6z"/>
	<path class="st2" d="M3.9,1.1c-2.6,0-2.6,0-2.5,2.4c0,0.8-0.4,1.9,0.2,2.4C2,6.4,3.1,6,3.9,6c2.4,0,2.4,0,2.4-2.4
		c0-0.8,0.4-1.9-0.2-2.4C5.6,0.7,4.6,1.2,3.9,1.1z"/>
</g>
<g>
	<path class="st1" d="M71.1,75.1c-0.2-0.1-0.2-0.3-0.2-0.5c0-0.1,0.1-0.3,0.2-0.5L82.8,52c0.2-0.3,0.4-0.5,0.7-0.5
		c0.3,0,0.5,0.2,0.7,0.5l11.7,22.1c0.1,0.2,0.2,0.4,0.2,0.5c0,0.2-0.1,0.4-0.2,0.5c-0.2,0.1-0.4,0.2-0.6,0.2h-3.5
		c-0.5,0-0.9-0.2-1.1-0.7L89,71.6H77.9l-1.5,2.9c-0.2,0.5-0.6,0.7-1.1,0.7h-3.6C71.5,75.3,71.2,75.2,71.1,75.1z M86.5,67.2L83.4,61
		l-3,6.2H86.5z"/>
	<path class="st1" d="M115.8,57.7c0.2,0.2,0.3,0.4,0.3,0.7v15.3c0,2.6-0.8,4.6-2.4,6.1c-1.6,1.5-3.8,2.2-6.6,2.2
		c-3,0-5.6-0.7-7.8-2.1c-0.3-0.2-0.5-0.4-0.5-0.7c0-0.2,0.1-0.4,0.2-0.6l1.3-1.9c0.2-0.3,0.5-0.5,0.7-0.5c0.2,0,0.4,0.1,0.6,0.2
		c0.7,0.5,1.5,0.8,2.3,1.1c0.9,0.2,1.8,0.4,2.7,0.4c3.1,0,4.6-1.4,4.6-4.2v-0.3c-1.3,1.1-2.9,1.6-5,1.6c-1.9,0-3.5-0.4-4.9-1.2
		c-1.4-0.8-2.5-1.9-3.3-3.2c-0.8-1.4-1.1-2.9-1.1-4.5c0-1.7,0.4-3.2,1.1-4.5c0.8-1.3,1.9-2.4,3.3-3.2c1.4-0.8,3-1.2,5-1.2
		c2.1,0,3.7,0.5,5,1.6v-0.3c0-0.3,0.1-0.5,0.3-0.7c0.2-0.2,0.4-0.3,0.7-0.3h2.9C115.4,57.4,115.6,57.5,115.8,57.7z M109.1,70.2
		c0.7-0.4,1.3-1,1.8-1.8c0.4-0.8,0.7-1.6,0.7-2.4c0-0.9-0.2-1.7-0.6-2.5c-0.4-0.7-1-1.3-1.8-1.8c-0.7-0.4-1.6-0.6-2.5-0.6
		c-1.5,0-2.6,0.5-3.5,1.4c-0.9,0.9-1.4,2.1-1.4,3.5c0,1.5,0.4,2.6,1.3,3.5c0.9,0.9,2.1,1.3,3.6,1.3
		C107.5,70.9,108.3,70.7,109.1,70.2z"/>
	<path class="st1" d="M125.3,74.8c-1.5-0.6-2.7-1.6-3.7-2.9c-1.1-1.4-1.6-3.2-1.6-5.5c0-1.8,0.4-3.5,1.3-4.9c0.9-1.4,2-2.5,3.5-3.3
		c1.5-0.8,3.1-1.2,4.9-1.2c1.6,0,3.1,0.4,4.5,1.1c1.4,0.7,2.5,1.7,3.4,3c0.6,0.9,1,1.7,1.1,2.5c0.2,0.8,0.3,1.8,0.3,2.9
		c0,0.5-0.1,0.8-0.4,1.1c-0.2,0.3-0.6,0.5-1,0.5h-12.8c0.2,1.1,0.8,1.9,1.8,2.5c1,0.5,2,0.8,3.1,0.8c0.9,0,1.6-0.1,2.3-0.4
		c0.6-0.3,1.2-0.6,1.7-1.1c0.3-0.2,0.5-0.4,0.8-0.4c0.2,0,0.4,0.1,0.6,0.2l2.1,1.2c0.3,0.2,0.5,0.4,0.5,0.7c0,0.2-0.1,0.4-0.3,0.6
		c-2,2.2-4.6,3.3-7.7,3.3C128.2,75.7,126.8,75.4,125.3,74.8z M126.5,62.3c-0.9,0.6-1.3,1.5-1.4,2.4h8.9c-0.1-0.6-0.3-1.1-0.7-1.7
		c-0.4-0.5-0.9-0.9-1.5-1.3c-0.6-0.3-1.3-0.5-2.1-0.5C128.4,61.4,127.3,61.7,126.5,62.3z"/>
	<path class="st1" d="M157.9,59c1.1,1.3,1.7,3.2,1.7,5.7v9.6c0,0.3-0.1,0.5-0.3,0.7c-0.2,0.2-0.4,0.3-0.7,0.3h-3
		c-0.3,0-0.5-0.1-0.7-0.3c-0.2-0.2-0.3-0.4-0.3-0.7v-9.6c0-2.4-1.1-3.6-3.4-3.6c-1,0-1.8,0.4-2.5,1.1c-0.7,0.8-1,1.9-0.9,3.6v8.5
		c0,0.3-0.1,0.5-0.3,0.7c-0.2,0.2-0.4,0.3-0.7,0.3h-2.9c-0.3,0-0.5-0.1-0.7-0.3s-0.3-0.4-0.3-0.7V58.4c0-0.3,0.1-0.5,0.3-0.7
		c0.2-0.2,0.4-0.3,0.7-0.3h2.9c0.3,0,0.5,0.1,0.7,0.3c0.2,0.2,0.3,0.4,0.3,0.7V59c0.6-0.6,1.3-1.1,2.2-1.4c0.9-0.3,1.7-0.5,2.6-0.5
		C155,57.1,156.8,57.7,157.9,59z"/>
	<path class="st1" d="M168.4,74.5c-1.5-0.8-2.7-2-3.6-3.4c-0.9-1.4-1.3-3-1.3-4.7c0-1.7,0.4-3.2,1.3-4.6c0.9-1.4,2.1-2.6,3.6-3.4
		c1.5-0.8,3.1-1.2,4.8-1.2c1.7,0,3.3,0.4,4.7,1.1c1.4,0.7,2.6,1.8,3.5,3.2c0.1,0.2,0.2,0.4,0.2,0.5c0,0.3-0.2,0.6-0.6,0.8l-2.6,1
		c-0.2,0.1-0.3,0.1-0.5,0.1c-0.3,0-0.6-0.2-0.8-0.5c-1-1.3-2.3-1.9-3.9-1.9c-1.4,0-2.6,0.5-3.5,1.4c-0.9,1-1.4,2.2-1.4,3.6
		c0,1,0.2,1.8,0.6,2.6c0.4,0.8,1,1.4,1.8,1.8c0.7,0.4,1.6,0.6,2.5,0.6c1.6,0,3-0.6,4-1.9c0.3-0.3,0.6-0.5,0.9-0.5
		c0.2,0,0.3,0,0.5,0.1l2.3,0.9c0.4,0.2,0.6,0.4,0.6,0.8c0,0.2-0.1,0.3-0.2,0.5c-1.8,2.9-4.5,4.4-8.2,4.4
		C171.5,75.7,169.9,75.3,168.4,74.5z"/>
	<path class="st1" d="M192.2,82h-3.3c-0.6,0-0.8-0.2-0.8-0.7c0-0.1,0-0.3,0.1-0.5l2.6-6.2l-7.1-16c-0.1-0.2-0.1-0.3-0.1-0.5
		c0-0.2,0.1-0.4,0.2-0.5c0.1-0.1,0.3-0.2,0.6-0.2h3.6c0.5,0,0.9,0.2,1.1,0.7l4.2,10.6l3.9-10.6c0.2-0.5,0.6-0.8,1.1-0.8h3.5
		c0.3,0,0.5,0.1,0.6,0.2c0.2,0.1,0.2,0.3,0.2,0.5c0,0.1,0,0.2-0.1,0.4l-9.2,22.6C193.1,81.7,192.7,82,192.2,82z"/>
</g>
<g>
	<path class="st0" d="M71.6,45.1c-0.2-0.2-0.3-0.5-0.3-0.8V18.8c0-0.4,0.1-0.6,0.3-0.8c0.2-0.2,0.5-0.3,0.8-0.3h10.3
		c4.1,0,7.5,1.2,10.1,3.5c1.4,1.2,2.5,2.7,3.2,4.5c0.7,1.8,1.1,3.7,1.1,5.9c0,2.1-0.4,4.1-1.1,5.9c-0.8,1.8-1.8,3.3-3.2,4.6
		c-1.3,1.1-2.8,2-4.5,2.6c-1.7,0.6-3.6,0.9-5.6,0.9H72.4C72,45.4,71.8,45.3,71.6,45.1z M82.7,40.2c5.6,0,8.4-2.9,8.4-8.7
		s-2.8-8.7-8.4-8.7h-5.5v17.3H82.7z"/>
	<path class="st0" d="M107.3,21.4c-0.6,0.6-1.3,0.9-2.2,0.9c-0.9,0-1.6-0.3-2.3-0.9c-0.6-0.6-0.9-1.3-0.9-2.2c0-0.8,0.3-1.6,0.9-2.1
		c0.6-0.6,1.4-0.9,2.3-0.9c0.9,0,1.6,0.3,2.2,0.9c0.6,0.6,0.9,1.3,0.9,2.1C108.2,20.1,107.9,20.8,107.3,21.4z M102.5,45.1
		c-0.2-0.2-0.3-0.5-0.3-0.8V25.7c0-0.4,0.1-0.6,0.3-0.8c0.2-0.2,0.5-0.3,0.8-0.3h3.4c0.4,0,0.6,0.1,0.8,0.3c0.2,0.2,0.3,0.5,0.3,0.8
		v18.6c0,0.4-0.1,0.6-0.3,0.8c-0.2,0.2-0.5,0.3-0.8,0.3h-3.4C103,45.4,102.7,45.3,102.5,45.1z"/>
	<path class="st0" d="M134.7,24.8c0.2,0.2,0.3,0.5,0.3,0.8v17.9c0,3-0.9,5.4-2.8,7.1c-1.9,1.7-4.5,2.6-7.8,2.6
		c-3.5,0-6.6-0.8-9.1-2.5c-0.4-0.2-0.5-0.5-0.5-0.8c0-0.2,0.1-0.5,0.3-0.7l1.5-2.2c0.3-0.4,0.5-0.5,0.9-0.5c0.2,0,0.5,0.1,0.7,0.2
		c0.8,0.5,1.7,0.9,2.7,1.2c1,0.3,2.1,0.4,3.1,0.4c3.6,0,5.4-1.6,5.4-4.9v-0.3c-1.5,1.2-3.4,1.9-5.9,1.9c-2.2,0-4.1-0.5-5.8-1.4
		c-1.7-0.9-3-2.2-3.9-3.8c-0.9-1.6-1.3-3.4-1.3-5.3c0-2,0.4-3.7,1.3-5.3c0.9-1.6,2.2-2.8,3.8-3.8c1.6-0.9,3.6-1.4,5.8-1.4
		c2.4,0,4.4,0.6,5.9,1.9v-0.3c0-0.4,0.1-0.6,0.3-0.8c0.2-0.2,0.5-0.3,0.8-0.3h3.3C134.2,24.5,134.5,24.6,134.7,24.8z M126.8,39.6
		c0.9-0.5,1.6-1.2,2.1-2.1c0.5-0.9,0.8-1.8,0.8-2.8c0-1.1-0.2-2-0.7-2.9s-1.2-1.5-2.1-2.1c-0.9-0.5-1.8-0.7-2.9-0.7
		c-1.7,0-3.1,0.5-4.1,1.6c-1.1,1.1-1.6,2.4-1.6,4.1c0,1.7,0.5,3.1,1.6,4.1c1,1,2.4,1.6,4.2,1.6C125,40.3,125.9,40.1,126.8,39.6z"/>
	<path class="st0" d="M146,21.4c-0.6,0.6-1.3,0.9-2.2,0.9c-0.9,0-1.6-0.3-2.3-0.9c-0.6-0.6-0.9-1.3-0.9-2.2c0-0.8,0.3-1.6,0.9-2.1
		c0.6-0.6,1.4-0.9,2.3-0.9c0.9,0,1.6,0.3,2.2,0.9c0.6,0.6,0.9,1.3,0.9,2.1C146.9,20.1,146.6,20.8,146,21.4z M141.2,45.1
		c-0.2-0.2-0.3-0.5-0.3-0.8V25.7c0-0.4,0.1-0.6,0.3-0.8c0.2-0.2,0.5-0.3,0.8-0.3h3.4c0.4,0,0.6,0.1,0.8,0.3c0.2,0.2,0.3,0.5,0.3,0.8
		v18.6c0,0.4-0.1,0.6-0.3,0.8s-0.5,0.3-0.8,0.3h-3.4C141.7,45.4,141.4,45.3,141.2,45.1z"/>
	<path class="st0" d="M159.3,37.6c0,1,0.2,1.8,0.5,2.3c0.3,0.5,1,0.8,2.1,0.8h0.3c0.8,0,1.2,0.4,1.2,1.1v2.5c0,0.4-0.1,0.6-0.3,0.9
		c-0.2,0.2-0.5,0.3-0.8,0.4c-0.3,0-0.8,0-1.4,0c-1.7,0-3-0.1-4-0.4c-1-0.3-1.7-0.8-2.3-1.5c-0.6-0.7-0.8-1.8-0.8-3.3V29.2h-1.4
		c-0.4,0-0.6-0.1-0.8-0.3c-0.2-0.2-0.3-0.5-0.3-0.8v-2.7c0-0.4,0.1-0.6,0.3-0.8c0.2-0.2,0.5-0.3,0.8-0.3h1.4v-4.4
		c0-0.4,0.1-0.6,0.3-0.8c0.2-0.2,0.5-0.3,0.8-0.3h3.3c0.4,0,0.6,0.1,0.8,0.3c0.2,0.2,0.3,0.5,0.3,0.8v4.4h3c0.4,0,0.6,0.1,0.8,0.3
		c0.2,0.2,0.3,0.5,0.3,0.8V28c0,0.4-0.1,0.6-0.3,0.8c-0.2,0.2-0.5,0.3-0.8,0.3h-3V37.6z"/>
	<path class="st0" d="M184,45.1c-0.2-0.2-0.3-0.5-0.3-0.8v-1c-0.5,0.7-1.4,1.3-2.5,1.8c-1.2,0.5-2.5,0.8-3.8,0.8
		c-2.1,0-4-0.5-5.6-1.4s-2.8-2.3-3.6-4c-0.8-1.6-1.3-3.5-1.3-5.5c0-2.1,0.4-3.9,1.3-5.5c0.8-1.6,2.1-3,3.6-3.9
		c1.6-1,3.4-1.4,5.6-1.4c1.4,0,2.6,0.2,3.8,0.7c1.1,0.5,2,1.1,2.6,1.9v-1c0-0.4,0.1-0.6,0.3-0.8c0.2-0.2,0.5-0.3,0.8-0.3h3.3
		c0.4,0,0.6,0.1,0.8,0.3c0.2,0.2,0.3,0.5,0.3,0.8v18.6c0,0.4-0.1,0.6-0.3,0.8c-0.2,0.2-0.5,0.3-0.8,0.3h-3.3
		C184.4,45.4,184.2,45.3,184,45.1z M182.3,30.7c-1.1-1.1-2.4-1.6-4.2-1.6c-1.7,0-3.1,0.5-4.2,1.6c-1,1.1-1.6,2.5-1.6,4.3
		c0,1.7,0.5,3.1,1.6,4.2c1.1,1.1,2.4,1.7,4.1,1.7c1.8,0,3.2-0.5,4.2-1.6c1-1.1,1.5-2.5,1.5-4.3C183.9,33.2,183.4,31.8,182.3,30.7z"
		/>
	<path class="st0" d="M195.3,45.1c-0.2-0.2-0.3-0.5-0.3-0.8V17.8c0-0.4,0.1-0.6,0.3-0.8c0.2-0.2,0.5-0.3,0.8-0.3h3.4
		c0.4,0,0.6,0.1,0.8,0.3c0.2,0.2,0.3,0.5,0.3,0.8v26.4c0,0.4-0.1,0.6-0.3,0.8s-0.5,0.3-0.8,0.3h-3.4
		C195.7,45.4,195.5,45.3,195.3,45.1z"/>
	<circle class="st1" cx="105.1" cy="18.6" r="4.3"/>
	<circle class="st1" cx="143.8" cy="18.6" r="4.3"/>
</g>
</svg>
