<svg xmlns="http://www.w3.org/2000/svg" enable-background="new 0 0 432 216" viewBox="0 0 432 216"><path d="m0 0h432v216h-432z" fill="#174b24"></path><path d="m0 155.7h432v60.3h-432z" fill="#f2f2f3"></path><path d="m36 197.4h-13.5v-2.3l6.5-6.5c1.7-1.7 2.9-3.1 3.6-4.2s1.1-2.3 1.1-3.6-.4-2.3-1.1-3-1.8-1.1-3.2-1.1c-2 0-3.9.9-5.8 2.6v-2.7c1.8-1.4 3.8-2 6.1-2 2 0 3.6.5 4.7 1.6s1.7 2.5 1.7 4.4c0 1.4-.4 2.8-1.2 4.2s-2.2 3.1-4.3 5.1l-5.2 5.1v.1h10.6z" fill="#174b24"></path><path d="m46.7 197.8c-2.2 0-4-1-5.2-2.9s-1.9-4.7-1.9-8.3c0-4 .6-7 1.9-9s3.2-3 5.6-3c4.7 0 7 3.8 7 11.5 0 3.8-.7 6.7-2 8.7-1.2 2-3.1 3-5.4 3zm.3-21c-3.2 0-4.8 3.2-4.8 9.7 0 6.1 1.6 9.1 4.7 9.1s4.6-3.1 4.6-9.2c.1-6.4-1.5-9.6-4.5-9.6z" fill="#174b24"></path><path d="m70.5 197.4h-13.5v-2.3l6.5-6.5c1.7-1.7 2.9-3.1 3.6-4.2s1.1-2.3 1.1-3.6-.4-2.3-1.1-3-1.8-1.1-3.2-1.1c-2 0-3.9.9-5.8 2.6v-2.7c1.8-1.4 3.8-2 6.1-2 2 0 3.6.5 4.7 1.6s1.7 2.5 1.7 4.4c0 1.4-.4 2.8-1.2 4.2s-2.2 3.1-4.3 5.1l-5.2 5.1v.1h10.4v2.3z" fill="#174b24"></path><path d="m81.2 197.8c-2.2 0-4-1-5.2-2.9s-1.9-4.7-1.9-8.3c0-4 .6-7 1.9-9s3.2-3 5.6-3c4.7 0 7 3.8 7 11.5 0 3.8-.7 6.7-2 8.7-1.2 2-3.1 3-5.4 3zm.3-21c-3.2 0-4.8 3.2-4.8 9.7 0 6.1 1.6 9.1 4.7 9.1s4.6-3.1 4.6-9.2c.1-6.4-1.5-9.6-4.5-9.6z" fill="#174b24"></path><g fill="#fff"><path d="m35.5 82.2h-1.5v-8.5c0-.7 0-1.5.1-2.5-.1.6-.3 1-.4 1.2l-4.3 9.7h-.7l-4.3-9.6c-.1-.3-.2-.7-.4-1.3 0 .5.1 1.3.1 2.5v8.4h-1.4v-12.5h2l3.9 8.8c.3.7.5 1.2.6 1.5h.1c.3-.7.5-1.2.6-1.5l3.9-8.8h1.8v12.6z"></path><path d="m41.5 69.6v1.3h-1.2v10.1h1.2v1.3h-3.9v-1.3h1.2v-10.2h-1.2v-1.3h3.9z"></path><path d="m52.2 81.7c-.9.5-2.1.7-3.5.7-1.8 0-3.2-.6-4.3-1.7s-1.6-2.7-1.6-4.5c0-2 .6-3.6 1.8-4.9s2.8-1.9 4.6-1.9c1.2 0 2.2.2 3 .5v1.6c-.9-.5-1.9-.8-3-.8-1.4 0-2.6.5-3.5 1.5s-1.3 2.3-1.3 3.9c0 1.5.4 2.8 1.3 3.7s1.9 1.4 3.3 1.4c1.3 0 2.4-.3 3.3-.8v1.3z"></path><path d="m63.8 82.2h-1.8l-2.1-3.5c-.2-.3-.4-.6-.6-.8s-.4-.4-.6-.6-.4-.3-.6-.3-.5-.1-.7-.1h-1.2v5.4h-1.5v-12.7h3.8c.6 0 1.1.1 1.5.2s.9.3 1.2.6.6.6.8 1 .3.9.3 1.5c0 .4-.1.8-.2 1.2s-.3.7-.6 1-.5.5-.9.7c-.3.2-.7.4-1.2.5.2.1.4.2.5.3.2.1.3.3.4.4s.3.4.4.6.3.5.5.7zm-7.6-11.3v4.6h2c.4 0 .7-.1 1-.2s.6-.3.8-.5.4-.5.5-.8.2-.6.2-1c0-.7-.2-1.2-.7-1.6-.4-.4-1.1-.6-1.9-.6h-1.9z"></path><path d="m70.4 82.4c-1.8 0-3.2-.6-4.3-1.8s-1.6-2.7-1.6-4.6c0-2 .5-3.6 1.6-4.9s2.6-1.8 4.5-1.8c1.7 0 3.1.6 4.2 1.8s1.6 2.7 1.6 4.6c0 2.1-.5 3.7-1.6 4.9s-2.6 1.8-4.4 1.8zm.1-11.7c-1.3 0-2.4.5-3.2 1.4s-1.2 2.2-1.2 3.8.4 2.8 1.2 3.7 1.9 1.4 3.2 1.4c1.4 0 2.5-.5 3.3-1.4s1.2-2.2 1.2-3.8c0-1.7-.4-3-1.2-3.9s-1.9-1.2-3.3-1.2z"></path><path d="m78.3 81.7v-1.7c.2.2.4.3.7.5s.6.3.9.4.6.2.9.2.6.1.9.1c.9 0 1.6-.2 2-.5s.7-.8.7-1.5c0-.3-.1-.6-.2-.9s-.4-.5-.6-.7c-.3-.2-.6-.4-.9-.6-.4-.2-.7-.4-1.2-.6-.4-.2-.8-.4-1.2-.7s-.7-.5-1-.8-.5-.6-.7-.9-.2-.8-.2-1.2c0-.6.1-1.1.4-1.5s.6-.8 1-1 .9-.5 1.4-.6 1.1-.2 1.6-.2c1.2 0 2.1.1 2.7.4v1.7c-.7-.5-1.7-.8-2.9-.8-.3 0-.6 0-1 .1s-.6.1-.9.2-.5.3-.6.6-.2.5-.2.9c0 .3.1.6.2.8s.3.4.5.6.5.4.9.6.7.4 1.2.6.9.5 1.3.7.8.5 1.1.8.5.6.7 1 .2.8.2 1.3c0 .6-.1 1.1-.4 1.6-.2.4-.6.8-1 1s-.9.5-1.4.6-1.1.2-1.7.2c-.2 0-.4 0-.7 0s-.6-.1-.9-.1c-.3-.1-.6-.1-.9-.2-.3-.2-.5-.3-.7-.4z"></path><path d="m93.6 82.4c-1.8 0-3.2-.6-4.3-1.8s-1.6-2.7-1.6-4.6c0-2 .5-3.6 1.6-4.9s2.6-1.8 4.5-1.8c1.7 0 3.1.6 4.2 1.8s1.6 2.7 1.6 4.6c0 2.1-.5 3.7-1.6 4.9s-2.6 1.8-4.4 1.8zm.1-11.7c-1.3 0-2.4.5-3.2 1.4s-1.2 2.2-1.2 3.8.4 2.8 1.2 3.7 1.9 1.4 3.2 1.4c1.4 0 2.5-.5 3.3-1.4s1.2-2.2 1.2-3.8c0-1.7-.4-3-1.2-3.9s-2-1.2-3.3-1.2z"></path><path d="m108.4 70.9h-4.9v4.4h4.6v1.3h-4.6v5.6h-1.5v-12.6h6.4z"></path><path d="m118.4 70.9h-3.6v11.3h-1.5v-11.3h-3.6v-1.3h8.7z"></path><path d="m135.1 82.2h-1.6l-1.3-3.5h-5.3l-1.3 3.5h-1.6l4.8-12.6h1.5zm-3.5-4.9-2-5.4c-.1-.2-.1-.5-.2-.8-.1.4-.1.6-.2.8l-2 5.4z"></path><path d="m136.9 82.2v-12.6h3.5c4.4 0 6.7 2 6.7 6.1 0 1.9-.6 3.5-1.8 4.7s-2.9 1.8-5 1.8zm1.5-11.3v9.9h1.9c1.7 0 2.9-.4 3.9-1.3s1.4-2.1 1.4-3.8c0-3.2-1.7-4.8-5.2-4.8z"></path><path d="m158.9 69.6-4.7 12.6h-1.6l-4.6-12.6h1.6l3.5 10c.1.3.2.7.3 1.1 0-.4.1-.7.3-1.1l3.6-10z"></path><path d="m167.4 82.2h-6.7v-12.6h6.4v1.3h-4.9v4.2h4.6v1.3h-4.6v4.4h5.2z"></path><path d="m178.9 82.2h-1.8l-2.1-3.5c-.2-.3-.4-.6-.6-.8s-.4-.4-.6-.6-.4-.3-.6-.3c-.2-.1-.5-.1-.7-.1h-1.2v5.4h-1.5v-12.7h3.8c.6 0 1.1.1 1.5.2.5.1.9.3 1.2.6s.6.6.8 1 .3.9.3 1.5c0 .4-.1.8-.2 1.2s-.3.7-.6 1c-.2.3-.5.5-.9.7-.3.2-.7.4-1.2.5.2.1.4.2.5.3.2.1.3.3.4.4s.3.4.4.6.3.5.5.7zm-7.6-11.3v4.6h2c.4 0 .7-.1 1-.2s.6-.3.8-.5.4-.5.5-.8.2-.6.2-1c0-.7-.2-1.2-.7-1.6-.4-.4-1.1-.6-1.9-.6h-1.9z"></path><path d="m187.6 70.9h-3.6v11.3h-1.5v-11.3h-3.6v-1.3h8.7z"></path><path d="m192.3 69.6v1.3h-1.3v10.1h1.2v1.3h-3.9v-1.3h1.2v-10.2h-1.2v-1.3h4z"></path><path d="m193.8 81.7v-1.7c.2.2.4.3.7.5s.6.3.9.4.6.2.9.2.6.1.9.1c.9 0 1.6-.2 2-.5s.7-.8.7-1.5c0-.3-.1-.6-.2-.9s-.4-.5-.6-.7c-.3-.2-.6-.4-.9-.6-.4-.2-.7-.4-1.2-.6-.4-.2-.8-.4-1.2-.7s-.7-.5-1-.8-.5-.6-.7-.9-.2-.8-.2-1.2c0-.6.1-1.1.4-1.5s.6-.8 1-1 .9-.5 1.4-.6 1.1-.2 1.6-.2c1.2 0 2.1.1 2.7.4v1.7c-.7-.5-1.7-.8-2.9-.8-.3 0-.6 0-1 .1s-.6.2-.9.3-.5.3-.6.6-.2.5-.2.9c0 .3.1.6.2.8s.3.4.5.6.5.4.9.6c.3.2.7.4 1.2.6s.9.5 1.3.7.8.5 1.1.8.5.6.7 1 .3.8.3 1.2c0 .6-.1 1.1-.4 1.6-.2.4-.6.8-1 1-.4.3-.9.5-1.4.6s-1.1.2-1.7.2c-.2 0-.4 0-.7 0s-.6-.1-.9-.1c-.3-.1-.6-.1-.9-.2-.5-.2-.7-.3-.8-.4z"></path><path d="m206.6 69.6v1.3h-1.2v10.1h1.2v1.3h-3.9v-1.3h1.2v-10.2h-1.2v-1.3h3.9z"></path><path d="m218.9 82.2h-1.8l-6.5-10c-.2-.3-.3-.5-.4-.8h-.1c0 .3.1.8.1 1.7v9.1h-1.5v-12.6h1.9l6.3 9.9c.3.4.4.7.5.8-.1-.4-.1-1-.1-1.9v-8.9h1.5v12.7z"></path><path d="m231.6 81.3c-1.3.7-2.7 1.1-4.2 1.1-1.8 0-3.3-.6-4.4-1.7-1.1-1.2-1.7-2.7-1.7-4.6 0-2 .6-3.6 1.8-4.8s2.8-1.9 4.7-1.9c1.4 0 2.5.2 3.5.7v1.6c-1-.6-2.2-1-3.6-1s-2.6.5-3.5 1.5-1.4 2.2-1.4 3.8.4 2.8 1.3 3.8 2 1.4 3.4 1.4c1 0 1.8-.2 2.6-.6v-3.5h-2.8v-1.3h4.2v5.5z"></path></g><path d="m27.5 109.8v8.1h-3.7v-22.4h6.8c2.6 0 4.6.6 6 1.8s2.1 2.9 2.1 5.1-.7 4-2.2 5.3c-1.5 1.4-3.5 2.1-6 2.1zm0-11.3v8.2h2.4c1.6 0 2.8-.4 3.6-1.1s1.2-1.8 1.2-3.1c0-2.6-1.5-4-4.6-4z" fill="#a2cd3a"></path><path d="m53.4 117.9h-3.5v-2.5h-.1c-1.1 1.9-2.7 2.9-4.9 2.9-1.6 0-2.8-.4-3.7-1.3s-1.3-2-1.3-3.4c0-3 1.7-4.8 5.2-5.3l4.8-.7c0-2.3-1.1-3.4-3.2-3.4-1.9 0-3.6.7-5.2 2v-3.2c1.7-1 3.6-1.5 5.8-1.5 4 0 6.1 2 6.1 6zm-3.5-7.9-3.4.5c-1 .1-1.8.4-2.4.8-.5.4-.8 1-.8 1.9 0 .7.2 1.2.7 1.7.5.4 1.1.6 1.9.6 1.1 0 2-.4 2.7-1.2s1.1-1.8 1.1-2.9v-1.4z" fill="#a2cd3a"></path><path d="m67.1 105.3c-.4-.3-1.1-.5-1.9-.5-1.1 0-2 .5-2.7 1.5s-1.1 2.3-1.1 4v7.7h-3.6v-16h3.6v3.3h.1c.4-1.1.9-2 1.6-2.6s1.6-.9 2.5-.9c.7 0 1.2.1 1.5.3z" fill="#a2cd3a"></path><path d="m79 117.7c-.7.4-1.6.5-2.8.5-3.1 0-4.7-1.5-4.7-4.5v-9h-2.7v-2.8h2.7v-3.7l3.6-1v4.7h3.9v2.8h-3.8v8c0 .9.2 1.6.5 2s.9.6 1.7.6c.6 0 1.1-.2 1.6-.5z" fill="#a2cd3a"></path><path d="m96.4 117.9h-3.6v-9c0-3-1.1-4.5-3.2-4.5-1.1 0-2 .4-2.7 1.2s-1.1 1.9-1.1 3.1v9.1h-3.6v-16h3.6v2.7h.1c1.2-2 2.9-3 5.2-3 1.7 0 3.1.6 4 1.7s1.4 2.8 1.4 4.9v9.8z" fill="#a2cd3a"></path><path d="m114.4 110.9h-10.9c0 1.5.5 2.6 1.4 3.4s2.1 1.2 3.6 1.2c1.7 0 3.3-.5 4.7-1.5v2.9c-1.5.9-3.4 1.4-5.8 1.4s-4.2-.7-5.5-2.2-2-3.5-2-6.1c0-2.5.7-4.5 2.2-6.1s3.3-2.4 5.5-2.4 3.9.7 5.1 2.1 1.8 3.4 1.8 5.9v1.4zm-3.5-2.6c0-1.3-.3-2.3-.9-3s-1.4-1.1-2.5-1.1c-1 0-1.9.4-2.6 1.1-.7.8-1.2 1.8-1.3 3z" fill="#a2cd3a"></path><path d="m127.1 105.3c-.4-.3-1.1-.5-1.9-.5-1.1 0-2 .5-2.7 1.5s-1.1 2.3-1.1 4v7.7h-3.6v-16h3.6v3.3h.1c.4-1.1.9-2 1.6-2.6s1.6-.9 2.5-.9c.7 0 1.2.1 1.5.3z" fill="#a2cd3a"></path><path d="m61.4 25.1v12.4h-2.2v-9.8l-3.9 9.8h-1.4l-4-9.8v9.8h-2v-12.4h3.1l3.6 9.2h.1l3.8-9.2zm1.8 1c0-.3.1-.6.4-.9.3-.2.6-.4.9-.4.4 0 .7.1.9.4.2.2.4.5.4.9 0 .3-.1.6-.4.9-.2.2-.6.3-.9.3-.4 0-.7-.1-.9-.4-.2-.2-.4-.5-.4-.8zm2.4 2.6v8.9h-2.1v-8.9zm6.3 7.4c.3 0 .7-.1 1-.2.4-.1.7-.3 1-.6v2c-.3.2-.7.3-1.1.4s-.9.1-1.4.1c-1.3 0-2.4-.4-3.2-1.2s-1.2-1.9-1.2-3.2c0-1.4.4-2.6 1.3-3.5.8-.9 2-1.4 3.6-1.4.4 0 .8.1 1.2.2s.7.2 1 .4v2c-.3-.2-.7-.4-1-.6-.3-.1-.7-.2-1-.2-.8 0-1.5.3-2 .8s-.8 1.3-.8 2.2.2 1.6.7 2.1c.4.4 1.1.7 1.9.7zm8.1-7.6h.5s.2.1.3.1v2.1c-.1-.1-.3-.2-.5-.2-.2-.1-.5-.1-.8-.1-.5 0-1 .2-1.3.7-.4.4-.5 1.1-.5 2v4.5h-2.1v-8.9h2.1v1.4c.2-.5.5-.9.9-1.1.4-.3.8-.5 1.4-.5zm.9 4.8c0-1.5.4-2.6 1.2-3.5s2-1.3 3.5-1.3c1.4 0 2.5.4 3.3 1.2s1.2 2 1.2 3.4-.4 2.6-1.2 3.5-2 1.3-3.4 1.3-2.5-.4-3.3-1.2c-.9-.9-1.3-2-1.3-3.4zm2.2-.1c0 .9.2 1.6.6 2.1s1 .7 1.8.7 1.3-.2 1.7-.7.6-1.2.6-2.2-.2-1.7-.6-2.2-1-.7-1.7-.7c-.8 0-1.4.3-1.8.8s-.6 1.2-.6 2.2zm10.1-2.2c0 .3.1.5.3.7s.6.4 1.3.6c.8.3 1.4.7 1.8 1.1.3.4.5.9.5 1.5 0 .8-.3 1.5-1 2-.6.5-1.5.8-2.6.8-.4 0-.8 0-1.2-.1s-.8-.2-1.1-.3v-2.1c.4.3.8.5 1.2.6.4.2.8.2 1.2.2.5 0 .8-.1 1.1-.2.2-.1.3-.4.3-.7s-.1-.5-.4-.7c-.2-.2-.7-.4-1.3-.7-.8-.3-1.3-.7-1.6-1.1s-.5-.9-.5-1.5c0-.8.3-1.5 1-2 .6-.5 1.5-.8 2.5-.8.3 0 .7 0 1.1.1s.7.2 1 .3v2c-.3-.2-.6-.3-1-.5-.4-.1-.7-.2-1.1-.2s-.7.1-.9.2c-.5.3-.6.5-.6.8zm4.7 2.3c0-1.5.4-2.6 1.2-3.5s2-1.3 3.5-1.3c1.4 0 2.5.4 3.3 1.2s1.2 2 1.2 3.4-.4 2.6-1.2 3.5-2 1.3-3.4 1.3-2.5-.4-3.3-1.2c-.9-.9-1.3-2-1.3-3.4zm2.2-.1c0 .9.2 1.6.6 2.1s1 .7 1.8.7 1.3-.2 1.7-.7.6-1.2.6-2.2-.2-1.7-.6-2.2-1-.7-1.7-.7c-.8 0-1.4.3-1.8.8s-.6 1.2-.6 2.2zm13.9-2.8h-3.1v7.2h-2.1v-7.2h-1.5v-1.7h1.5v-1.2c0-.9.3-1.7.9-2.3s1.4-.9 2.3-.9h.7c.2 0 .4.1.5.1v1.8c-.1 0-.2-.1-.4-.1-.2-.1-.4-.1-.6-.1-.4 0-.8.1-1 .4s-.4.7-.4 1.2v1.1h3.1v-2l2.1-.6v2.6h2.1v1.7h-2.1v4.2c0 .5.1.9.3 1.2.2.2.5.3.9.3.1 0 .3 0 .4-.1.2-.1.3-.1.4-.2v1.7c-.1.1-.4.1-.7.2s-.6.1-.9.1c-.9 0-1.5-.2-2-.7-.4-.5-.7-1.2-.7-2.1v-4.6z" fill="#fff"></path><path d="m21 21h9.9v9.9h-9.9z" fill="#f25022"></path><path d="m31.9 21h9.9v9.9h-9.9z" fill="#7fba00"></path><path d="m21 31.9h9.9v9.9h-9.9z" fill="#00a4ef"></path><path d="m31.9 31.9h9.9v9.9h-9.9z" fill="#ffb900"></path></svg>