<svg xmlns="http://www.w3.org/2000/svg" width="60" height="60" viewBox="0 0 36.568 57"><defs><style>.a{fill:#92a309;}</style></defs><g transform="translate(-212 -6123)"><g transform="translate(-178.889 6098.83)"><path class="a" d="M423.5,81.17H395.714a3.877,3.877,0,0,1-3.872-3.872V38.664a.922.922,0,0,1,1.844,0V77.3a2.031,2.031,0,0,0,2.028,2.028H423.5a2.031,2.031,0,0,0,2.028-2.028V28.042a2.031,2.031,0,0,0-2.028-2.028H395.714a2.031,2.031,0,0,0-2.028,2.028v3.514a.922.922,0,0,1-1.844,0V28.042a3.878,3.878,0,0,1,3.872-3.872H423.5a3.877,3.877,0,0,1,3.872,3.872V77.3A3.876,3.876,0,0,1,423.5,81.17Z" transform="translate(0.088)"></path><path class="a" d="M422.981,74.159H395.69a.922.922,0,0,1-.922-.922V55.082a.922.922,0,1,1,1.844,0V72.315h25.447V31.932H397.9a.922.922,0,0,1,0-1.844h25.078a.922.922,0,0,1,.922.922V73.237A.922.922,0,0,1,422.981,74.159Z" transform="translate(0.358 0.547)"></path><path class="a" d="M415.587,53.09H397.779a.923.923,0,0,1-.92-.861l-.919-13.672a.922.922,0,0,1,.92-.984h19.647a.923.923,0,0,1,.92.984l-.92,13.672A.921.921,0,0,1,415.587,53.09ZM398.64,51.245h16.085l.8-11.828H397.845Z" transform="translate(0.466 1.238)"></path><path class="a" d="M415.852,47.946H397.413a.922.922,0,0,1,0-1.844h18.439a.922.922,0,0,1,0,1.844Z" transform="translate(0.517 2.025)"></path><path class="a" d="M416.213,43.4H397.108a.922.922,0,0,1,0-1.844h19.105a.922.922,0,1,1,0,1.844Z" transform="translate(0.489 1.606)"></path><path class="a" d="M397.325,39.835a.923.923,0,0,1-.919-.848l-.332-4.093h-4.263a.922.922,0,0,1,0-1.844h5.113a.921.921,0,0,1,.919.847l.4,4.941a.923.923,0,0,1-.844.994C397.375,39.833,397.349,39.835,397.325,39.835Z" transform="translate(0 0.82)"></path><path class="a" d="M400.822,59.173a2.99,2.99,0,1,1,2.99-2.99A2.994,2.994,0,0,1,400.822,59.173Zm0-4.137a1.146,1.146,0,1,0,1.146,1.147A1.147,1.147,0,0,0,400.822,55.036Z" transform="translate(0.641 2.68)"></path><path class="a" d="M410.33,59.173a2.99,2.99,0,1,1,2.991-2.99A2.993,2.993,0,0,1,410.33,59.173Zm0-4.137a1.146,1.146,0,1,0,1.147,1.147A1.148,1.148,0,0,0,410.33,55.036Z" transform="translate(1.519 2.68)"></path><path class="a" d="M414.469,67.052h-11.31a3.749,3.749,0,0,1,0-7.5h11.31a3.749,3.749,0,1,1,0,7.5ZM403.159,61.4a1.906,1.906,0,0,0,0,3.811h11.31a1.906,1.906,0,1,0,0-3.811Z" transform="translate(0.787 3.268)"></path></g></g></svg>