<svg xmlns="http://www.w3.org/2000/svg" width="60" height="60" viewBox="0 0 61.398 61.399"><defs><style>.a{fill:#92a309;}</style></defs><g transform="translate(-1250 -9057)"><g transform="translate(724.385 8899.161)"><path class="a" d="M552.495,182.091a7.186,7.186,0,1,1,7.186-7.186A7.194,7.194,0,0,1,552.495,182.091Zm0-12.357a5.171,5.171,0,1,0,5.171,5.171A5.176,5.176,0,0,0,552.495,169.733Z" transform="translate(3.82 1.916)"></path><path class="a" d="M563.328,201.48H544.019a4.8,4.8,0,0,1-4.791-4.791V186.33a4.207,4.207,0,0,1,2.673-3.9l5.41-2.094a1.011,1.011,0,0,1,1.237.437l5.126,8.894,5.126-8.894a1.013,1.013,0,0,1,1.237-.437l5.41,2.094a4.209,4.209,0,0,1,2.673,3.9v10.359A4.8,4.8,0,0,1,563.328,201.48Zm-16.095-18.953-4.605,1.783a2.18,2.18,0,0,0-1.385,2.02v10.359a2.78,2.78,0,0,0,2.776,2.776h19.309a2.78,2.78,0,0,0,2.776-2.776V186.33a2.153,2.153,0,0,0-1.385-2.02l-4.605-1.783-5.568,9.659a1.008,1.008,0,0,1-1.747,0Z" transform="translate(2.64 4.35)"></path><path class="a" d="M574.271,174.436a1.007,1.007,0,0,1-1.008-1.008v-9.74h-9.74a1.008,1.008,0,0,1,0-2.015h10.748a1.008,1.008,0,0,1,1.008,1.008v10.748A1.008,1.008,0,0,1,574.271,174.436Z" transform="translate(7.157 0.744)"></path><path class="a" d="M574.271,207.5H563.523a1.008,1.008,0,0,1,0-2.015h9.74v-9.74a1.008,1.008,0,1,1,2.015,0v10.748A1.008,1.008,0,0,1,574.271,207.5Z" transform="translate(7.157 7.157)"></path><path class="a" d="M530.457,174.436a1.008,1.008,0,0,1-1.008-1.008V162.681a1.008,1.008,0,0,1,1.008-1.008H541.2a1.008,1.008,0,0,1,0,2.015h-9.738v9.74A1.008,1.008,0,0,1,530.457,174.436Z" transform="translate(0.744 0.744)"></path><path class="a" d="M541.2,207.5H530.457a1.008,1.008,0,0,1-1.008-1.008V195.747a1.008,1.008,0,0,1,2.017,0v9.74H541.2a1.008,1.008,0,0,1,0,2.015Z" transform="translate(0.744 7.157)"></path><path class="a" d="M530.188,184.722h-3.565a1.008,1.008,0,0,1,0-2.015h3.565a1.008,1.008,0,1,1,0,2.015Z" transform="translate(0 4.823)"></path><path class="a" d="M551.491,163.421a1.008,1.008,0,0,1-1.008-1.008v-3.566a1.008,1.008,0,0,1,2.016,0v3.566A1.008,1.008,0,0,1,551.491,163.421Z" transform="translate(4.823)"></path><path class="a" d="M576.938,184.722h-3.565a1.008,1.008,0,0,1,0-2.015h3.565a1.008,1.008,0,0,1,0,2.015Z" transform="translate(9.068 4.823)"></path><path class="a" d="M551.491,210.171a1.008,1.008,0,0,1-1.008-1.009V205.6a1.008,1.008,0,0,1,2.016,0v3.566A1.008,1.008,0,0,1,551.491,210.171Z" transform="translate(4.823 9.067)"></path></g></g></svg>