<svg xmlns="http://www.w3.org/2000/svg" width="60" height="60" viewBox="0 0 62.2 50.646"><defs><style>.a{fill:#92a309;}</style></defs><g transform="translate(-746 -9576)"><g transform="translate(580.162 9413.983)"><path class="a" d="M227.046,201.215H166.831a.992.992,0,1,1,0-1.985h60.215a.992.992,0,1,1,0,1.985Z" transform="translate(0 6.547)"></path><path class="a" d="M227.046,205.382H166.831a.992.992,0,1,1,0-1.985h60.215a.992.992,0,1,1,0,1.985Z" transform="translate(0 7.28)"></path><path class="a" d="M179.307,205.2h-9.1a.993.993,0,0,1-.992-.992V177.6a.993.993,0,0,1,.992-.992h9.1a.993.993,0,0,1,.992.992V204.2A.993.993,0,0,1,179.307,205.2Zm-8.109-1.985h7.117V178.589H171.2Z" transform="translate(0.594 2.566)"></path><path class="a" d="M191.662,206.278h-9.1a.993.993,0,0,1-.992-.992V171.443a.993.993,0,0,1,.992-.992h9.1a.993.993,0,0,1,.993.992v33.842A.993.993,0,0,1,191.662,206.278Zm-8.11-1.985h7.118V172.436h-7.118Z" transform="translate(2.767 1.484)"></path><path class="a" d="M204.016,205.72h-9.1a.993.993,0,0,1-.993-.992V174.619a.993.993,0,0,1,.993-.992h9.1a.992.992,0,0,1,.992.992v30.108A.992.992,0,0,1,204.016,205.72Zm-8.109-1.985h7.117V175.612h-7.117Z" transform="translate(4.941 2.043)"></path><path class="a" d="M216.371,207.762h-9.1a.993.993,0,0,1-.993-.992v-43.76a.993.993,0,0,1,.993-.992h9.1a.993.993,0,0,1,.992.992v43.76A.993.993,0,0,1,216.371,207.762Zm-8.109-1.985h7.117V164h-7.117Z" transform="translate(7.115 0)"></path></g></g></svg>