<svg xmlns="http://www.w3.org/2000/svg" width="60" height="60" viewBox="0 0 56.6 73.742"><defs><style>.a{fill:#92a309;}</style></defs><g transform="translate(-1276 -9578)"><g transform="translate(745.717 9488.512)"><path class="a" d="M542.688,103.283a6.9,6.9,0,1,1,6.9-6.9A6.9,6.9,0,0,1,542.688,103.283Zm0-11.525a4.627,4.627,0,1,0,4.628,4.627A4.632,4.632,0,0,0,542.688,91.758Z" transform="translate(1.899 0)"></path><path class="a" d="M535.448,124.706a1.134,1.134,0,0,1-1.135-1.135V107.756a1.135,1.135,0,0,1,2.27,0v15.815A1.135,1.135,0,0,1,535.448,124.706Z" transform="translate(1.39 5.907)"></path><path class="a" d="M552.339,159.182h-5.831a1.135,1.135,0,0,1-1.135-1.135V134.142a.784.784,0,0,0-.277-.6.767.767,0,0,0-.648-.175.864.864,0,0,0-.645.877v23.8a1.135,1.135,0,0,1-1.135,1.135h-5.83a1.134,1.134,0,0,1-1.135-1.135V128.939a3.842,3.842,0,0,1-5.419-3.608V107.021a5.8,5.8,0,0,1,5.793-5.793h2.179a1.135,1.135,0,0,1,0,2.27h-2.179a3.527,3.527,0,0,0-3.523,3.523v18.309a1.637,1.637,0,0,0,1.15,1.62,1.59,1.59,0,0,0,1.392-.278,1.568,1.568,0,0,0,.608-1.243,1.135,1.135,0,1,1,2.27,0v31.482h3.56V134.246a3.14,3.14,0,0,1,2.55-3.119,3.059,3.059,0,0,1,3.561,3.015v22.77H551.2v-47.3a1.135,1.135,0,0,1,1.916-.823l8.764,8.314a2.062,2.062,0,0,0,1.424.568h8.441a1.592,1.592,0,0,0,.019-3.184l-6.684-.086a4.339,4.339,0,0,1-3.256-1.529l-7.08-8.331a3.519,3.519,0,0,0-2.5-1.038H549.39a1.135,1.135,0,1,1,0-2.27h2.858a5.822,5.822,0,0,1,4.186,1.789l7.126,8.381a2.072,2.072,0,0,0,1.553.729l6.684.086a3.862,3.862,0,0,1-.047,7.725h-8.441a4.325,4.325,0,0,1-2.987-1.19l-6.848-6.5v45.792A1.135,1.135,0,0,1,552.339,159.182Z" transform="translate(0 4.048)"></path><path class="a" d="M564.978,107.511a4.262,4.262,0,0,1-4.361-4.145,1.135,1.135,0,0,1,2.27,0,2.1,2.1,0,1,0,2.091-1.875,4.15,4.15,0,1,1,4.361-4.145,1.135,1.135,0,0,1-2.27,0,2.1,2.1,0,1,0-2.091,1.875,4.15,4.15,0,1,1,0,8.289Z" transform="translate(10.459 1.281)"></path><path class="a" d="M566.795,112.9a11.446,11.446,0,1,1,11.446-11.446A11.459,11.459,0,0,1,566.795,112.9Zm0-20.621a9.176,9.176,0,1,0,9.176,9.176A9.186,9.186,0,0,0,566.795,92.281Z" transform="translate(8.643 0.18)"></path><path class="a" d="M570.575,144.905H531.418a1.135,1.135,0,1,1,0-2.27h39.157a1.135,1.135,0,1,1,0,2.27Z" transform="translate(0 18.325)"></path></g></g></svg>