<svg xmlns="http://www.w3.org/2000/svg" width="60" height="60" viewBox="0 0 66.275 71.227"><defs><style>.a{fill:#92a309;}</style></defs><g transform="translate(-1246.803 -6127.67)"><g transform="translate(1246.803 6127.67)"><path class="a" d="M33.239,72.226A33.239,33.239,0,0,0,34.426,5.778V3.293a2.3,2.3,0,0,0-1.144-2,2.168,2.168,0,0,0-2.2.011L24.866,4.946a2.323,2.323,0,0,0,0,3.979l6.219,3.643a2.169,2.169,0,0,0,2.2.011,2.3,2.3,0,0,0,1.144-2V8.152A30.864,30.864,0,1,1,2.374,38.987a1.187,1.187,0,0,0-2.374,0A33.276,33.276,0,0,0,33.239,72.226Zm-7.1-65.275,5.911-3.458.025,3.317a1.232,1.232,0,0,0-.025.126,1.121,1.121,0,0,0,.028.142l.026,3.338Z" transform="translate(0 -0.999)"></path><path class="a" d="M1.306,30.546a1.1,1.1,0,0,0,.182.013A1.187,1.187,0,0,0,2.66,29.546c.057-.385.119-.766.192-1.144a1.187,1.187,0,0,0-2.334-.434c-.076.407-.146.818-.207,1.23a1.187,1.187,0,0,0,.994,1.349Z" transform="translate(0.056 3.869)"></path><path class="a" d="M2.325,25.494a1.187,1.187,0,0,0,1.516-.723q.205-.577.43-1.143a1.187,1.187,0,1,0-2.206-.881q-.237.609-.462,1.231a1.187,1.187,0,0,0,.722,1.516Z" transform="translate(0.287 2.931)"></path><path class="a" d="M4.478,20.388a1.187,1.187,0,0,0,1.632-.4q.356-.58.73-1.143a1.188,1.188,0,0,0-1.973-1.322q-.406.607-.786,1.231a1.187,1.187,0,0,0,.4,1.631Z" transform="translate(0.731 1.995)"></path><path class="a" d="M8.187,16.4a1.187,1.187,0,0,0,.88-.389c.3-.335.615-.662.933-.984A1.187,1.187,0,1,0,8.314,13.35q-.516.52-1.007,1.061a1.187,1.187,0,0,0,.88,1.985Z" transform="translate(1.31 1.247)"></path><path class="a" d="M12.188,12.736a1.187,1.187,0,0,0,.7-.237q.475-.348.957-.678a1.187,1.187,0,0,0-1.333-1.965q-.526.356-1.034.732a1.187,1.187,0,0,0,.706,2.147Z" transform="translate(2.057 0.62)"></path><path class="a" d="M16.359,10.17a1.2,1.2,0,0,0,.519-.119q.475-.23.95-.444a1.187,1.187,0,1,0-.969-2.168c-.344.154-.684.312-1.022.475a1.187,1.187,0,0,0,.522,2.255Z" transform="translate(2.838 0.187)"></path><path class="a" d="M11.187,52.677H51.548a1.187,1.187,0,0,0,0-2.374H47.987V25.374A2.374,2.374,0,0,0,45.613,23H43.239a2.374,2.374,0,0,0-2.374,2.374V50.3H38.49V30.123a2.374,2.374,0,0,0-2.374-2.374H33.742a2.374,2.374,0,0,0-2.374,2.374V50.3H28.993V34.871A2.374,2.374,0,0,0,26.619,32.5H24.245a2.374,2.374,0,0,0-2.374,2.374V50.3H19.5v-8.31a2.374,2.374,0,0,0-2.374-2.374H14.748a2.374,2.374,0,0,0-2.374,2.374V50.3H11.187a1.187,1.187,0,1,0,0,2.374Zm32.051-27.3h2.374V50.3H43.239Zm-9.5,4.748h2.374V50.3H33.742Zm-9.5,4.748h2.374V50.3H24.245Zm-9.5,7.123h2.374V50.3H14.748Z" transform="translate(1.871 3.118)"></path><path class="a" d="M12.167,35.975a1.187,1.187,0,0,0,1.02.58,1.172,1.172,0,0,0,.605-.167L43.407,18.806,42.9,20.835a1.187,1.187,0,0,0,.864,1.44,1.149,1.149,0,0,0,.287.036,1.187,1.187,0,0,0,1.15-.9l1.187-4.748a1.187,1.187,0,0,0-.864-1.44l-4.748-1.187a1.187,1.187,0,1,0-.575,2.3l1.9.475L12.58,34.348a1.187,1.187,0,0,0-.413,1.627Z" transform="translate(2.245 1.433)"></path></g></g></svg>