<svg xmlns="http://www.w3.org/2000/svg" width="60" height="60" viewBox="0 0 56 56"><defs><style>.a{isolation:isolate;}.b{fill:#92a309;}</style></defs><g transform="translate(-185 -9050)"><g class="a" transform="translate(138.742 8643.75)"><g transform="translate(46.258 412.145)"><path class="b" d="M54.216,461.355a.9.9,0,0,1-.369-.08.889.889,0,0,1-.515-.8v-6.189H50.679a4.427,4.427,0,0,1-4.421-4.421V415.671a4.427,4.427,0,0,1,4.421-4.421H88.405a.884.884,0,1,1,0,1.768H50.679a2.657,2.657,0,0,0-2.653,2.653v34.189a2.657,2.657,0,0,0,2.653,2.653h3.537a.885.885,0,0,1,.884.884v5.151l6.792-5.822a.889.889,0,0,1,.576-.213H97.837a2.657,2.657,0,0,0,2.653-2.653v-4.716a.884.884,0,1,1,1.768,0v4.716a4.426,4.426,0,0,1-4.421,4.421H62.8l-8,6.86A.877.877,0,0,1,54.216,461.355Z" transform="translate(-46.258 -411.25)"></path></g><g transform="translate(52.153 418.039)"><path class="b" d="M73.363,447.492H52.142a.884.884,0,0,1,0-1.768H73.363a.884.884,0,0,1,0,1.768ZM85.153,441.6H52.142a.884.884,0,1,1,0-1.768H85.153a.884.884,0,1,1,0,1.768Zm0-5.895H52.142a.884.884,0,1,1,0-1.768H85.153a.884.884,0,1,1,0,1.768Zm0-5.895H52.142a.884.884,0,1,1,0-1.768H85.153a.884.884,0,1,1,0,1.768Zm0-5.895H52.142a.884.884,0,0,1,0-1.768H85.153a.884.884,0,0,1,0,1.768Zm0-5.895H52.142a.884.884,0,0,1,0-1.768H85.153a.884.884,0,0,1,0,1.768Z" transform="translate(-51.258 -416.25)"></path></g><g transform="translate(91.058 406.25)"><path class="b" d="M89.858,446.924a.883.883,0,0,1-.79-.489l-4.709-9.415a.9.9,0,0,1-.1-.4h0v0h0v0h0V409.492A3.417,3.417,0,0,1,87.5,406.25h4.716a3.415,3.415,0,0,1,3.242,3.242v27.119h0v0h0v0h0a.844.844,0,0,1-.1.4l-4.706,9.415A.884.884,0,0,1,89.858,446.924Zm-3.283-9.432,3.283,6.57,3.286-6.57Zm-.548-1.768H93.69V415.092H86.026Zm0-22.4H93.69v-3.832a1.67,1.67,0,0,0-1.474-1.474H87.5a1.67,1.67,0,0,0-1.474,1.474Z" transform="translate(-84.258 -406.25)"></path></g></g></g></svg>