<svg xmlns="http://www.w3.org/2000/svg" width="60" height="60" viewBox="0 0 48.641 48.529"><defs><style>.a{isolation:isolate;}.b{fill:#92a309;stroke:#92a309;}</style></defs><g transform="translate(-196.43 -6794.471)"><g class="a" transform="translate(60.743 6388.75)"><path class="b" d="M160.008,441.75a.752.752,0,0,1-.446-.147l-23-17a.75.75,0,1,1,.891-1.206l22.555,16.67,22.554-16.67a.75.75,0,1,1,.891,1.206l-23,17A.745.745,0,0,1,160.008,441.75Z"></path><path class="b" d="M180.008,453.75h-40a3.755,3.755,0,0,1-3.75-3.75V424a.75.75,0,0,1,.3-.6l3-2.217a.75.75,0,0,1,.891,1.207l-2.7,1.991V450a2.253,2.253,0,0,0,2.25,2.25h40a2.253,2.253,0,0,0,2.25-2.25V424.378l-2.7-1.991a.75.75,0,0,1,.891-1.207l3,2.217a.751.751,0,0,1,.3.6v26A3.755,3.755,0,0,1,180.008,453.75Zm-15.942-43a.751.751,0,0,1-.445-.147l-3.613-2.67L156.4,410.6a.75.75,0,1,1-.892-1.206l4.058-3a.752.752,0,0,1,.893,0l4.059,3a.75.75,0,0,1-.448,1.353Z"></path><path class="b" d="M177.008,425.75a.75.75,0,0,1-.75-.75V413.75h-32.5V425a.75.75,0,0,1-1.5,0V413a.75.75,0,0,1,.75-.75h34a.75.75,0,0,1,.75.75v12A.75.75,0,0,1,177.008,425.75Z"></path><path class="b" d="M166.008,433.75h-12a.75.75,0,1,1,0-1.5h12a.75.75,0,0,1,0,1.5Zm6-5h-24a.75.75,0,1,1,0-1.5h24a.75.75,0,0,1,0,1.5Zm0-5h-24a.75.75,0,1,1,0-1.5h24a.75.75,0,0,1,0,1.5Zm0-5h-24a.75.75,0,1,1,0-1.5h24a.75.75,0,0,1,0,1.5Z"></path></g></g></svg>