<svg xmlns="http://www.w3.org/2000/svg" width="60" height="60" viewBox="0 0 62.271 65.002"><defs><style>.a{fill:#92a309;}</style></defs><g transform="translate(-735 -3617.5)"><g transform="translate(734.5 3617.501)"><path class="a" d="M51.326,48.928a33.369,33.369,0,0,0-15.791-6.246l2.07-5.111a1.244,1.244,0,0,1,.705-.7,19.059,19.059,0,1,0-19.386-32.1A.952.952,0,0,0,20.183,6.2,17.15,17.15,0,1,1,37.63,35.1a3.154,3.154,0,0,0-1.791,1.76l-2.694,6.652-.01.026,0,.007-1.016,2.508a.652.652,0,0,1-1.208,0l-1.17-2.889c0-.012-.009-.024-.015-.036l-2.538-6.268A3.145,3.145,0,0,0,25.4,35.1a17.2,17.2,0,0,1-11.043-16.44,16.979,16.979,0,0,1,3.368-9.786A.952.952,0,0,0,16.2,7.738a18.876,18.876,0,0,0-3.743,10.878A19.109,19.109,0,0,0,24.723,36.878a1.237,1.237,0,0,1,.7.694l2.069,5.11a33.32,33.32,0,0,0-7.763,1.893.952.952,0,1,0,.67,1.783,31.379,31.379,0,0,1,5.23-1.463,23.719,23.719,0,0,0-5.934,9.378h-3.7A8.537,8.537,0,0,0,9.3,40.5H9.236a8.549,8.549,0,0,0-3.064,16.53l1.557,3.845a1.625,1.625,0,0,0,3.012,0L12.3,57.034a8.427,8.427,0,0,0,1.657-.857h5.056a53.652,53.652,0,0,0-1.757,6.92H2.636a31.627,31.627,0,0,1,1.9-3.613.952.952,0,0,0-1.625-.993,33.583,33.583,0,0,0-2.3,4.486A1.462,1.462,0,0,0,1.961,65h59.1a1.46,1.46,0,0,0,1.346-2.027A33.578,33.578,0,0,0,51.326,48.928ZM11.6,55.261a1.876,1.876,0,0,0-1.067,1.047l-1.3,3.217-1.3-3.217a1.872,1.872,0,0,0-1.063-1.046A6.645,6.645,0,0,1,9.236,42.408h.052A6.645,6.645,0,0,1,11.6,55.261ZM28.5,45.173l.645,1.592a2.556,2.556,0,0,0,4.738,0l.644-1.59a13.019,13.019,0,0,1,4.3,4.34.952.952,0,1,0,1.593-1.042A17.412,17.412,0,0,0,37.4,44.9a31.465,31.465,0,0,1,12.8,5.567,31.793,31.793,0,0,1,4.308,3.81H43.32c-.315-.818-.648-1.6-1-2.347a.952.952,0,1,0-1.724.807q.347.743.672,1.54H21.746c1.815-4.452,4.162-7.666,6.752-9.1ZM19.194,63.1a50.352,50.352,0,0,1,1.834-6.921H41.99A50.565,50.565,0,0,1,43.829,63.1Zm26.574,0A53.57,53.57,0,0,0,44,56.176H56.164A31.585,31.585,0,0,1,60.386,63.1Zm0,0" transform="translate(0 0)"></path><path class="a" d="M162.269,75.118h15.761a1.8,1.8,0,0,0,1.8-1.8V63.02A4.237,4.237,0,0,0,181,60.091V57.42a.074.074,0,0,0,0-.01c0-.008,0-.017,0-.025v0a.951.951,0,0,0-.127-.43l-2.556-4.636a2.131,2.131,0,0,0-1.865-1.1h-12.6a2.131,2.131,0,0,0-1.865,1.1l-2.557,4.636a.948.948,0,0,0-.127.458v.007s0,.008,0,.012v2.662a4.236,4.236,0,0,0,1.174,2.93v10.3a1.8,1.8,0,0,0,1.8,1.8Zm9.42-22,.617,3.358h-4.313l.616-3.358Zm7.407,6.972a2.347,2.347,0,0,1-4.695,0V58.381H179.1ZM167.8,58.382H172.5v1.709a2.348,2.348,0,0,1-4.7,0V58.382Zm-1.9,0v1.709a2.348,2.348,0,0,1-4.7,0V58.382Zm6.218,14.832h-3.932V67.221h3.932Zm1.9,0V66.5a1.183,1.183,0,0,0-1.181-1.181h-5.379a1.182,1.182,0,0,0-1.181,1.181v6.715h-3.9V64.178a4.252,4.252,0,0,0,4.474-1.408,4.247,4.247,0,0,0,6.6,0,4.25,4.25,0,0,0,4.474,1.408v9.036Zm2.628-19.977,1.788,3.241h-4.194l-.617-3.357h2.826a.223.223,0,0,1,.2.117Zm-13,0a.225.225,0,0,1,.2-.117h2.826l-.616,3.358h-4.194Zm0,0" transform="translate(-138.637 -44.713)"></path><path class="a" d="M401.955,263.559A3.155,3.155,0,1,0,398.8,260.4,3.158,3.158,0,0,0,401.955,263.559Zm0-4.4a1.25,1.25,0,1,1-1.251,1.25A1.252,1.252,0,0,1,401.955,259.155Zm0,0" transform="translate(-347.733 -224.591)"></path><path class="a" d="M359.8,217.578a.952.952,0,0,0,1.324.245,6.635,6.635,0,0,1,10.392,5.477,6.682,6.682,0,0,1-4.274,6.208,1.876,1.876,0,0,0-1.067,1.047l-1.3,3.217-1.3-3.217a1.875,1.875,0,0,0-1.064-1.046,6.661,6.661,0,0,1-4.276-6.367,6.542,6.542,0,0,1,.677-2.763.952.952,0,1,0-1.707-.843,8.428,8.428,0,0,0-.873,3.562,8.569,8.569,0,0,0,5.483,8.182l1.557,3.845a1.625,1.625,0,0,0,3.012,0l1.557-3.845a8.549,8.549,0,0,0-3-16.53,8.511,8.511,0,0,0-4.894,1.5.953.953,0,0,0-.245,1.324Zm0,0" transform="translate(-310.648 -187.489)"></path><path class="a" d="M47.608,361.543a3.155,3.155,0,1,0,3.155,3.155A3.159,3.159,0,0,0,47.608,361.543Zm0,4.4a1.25,1.25,0,1,1,1.25-1.25A1.252,1.252,0,0,1,47.608,365.948Zm0,0" transform="translate(-38.373 -315.643)"></path></g></g></svg>