<svg xmlns="http://www.w3.org/2000/svg" width="60" height="60" viewBox="0 0 70.4 70.399"><defs><style>.a{fill:#92a309;}</style></defs><g transform="translate(-728 -9048)"><g transform="translate(704.247 8955.927)"><path class="a" d="M37.5,130.873a1.2,1.2,0,0,1-1.09-.7,19.807,19.807,0,0,1,7.812-25.188,1.2,1.2,0,0,1,1.232,2.052,17.414,17.414,0,0,0-6.866,22.143,1.2,1.2,0,0,1-1.087,1.694Z" transform="translate(4.531 5.318)"></path><path class="a" d="M63.1,130.911a1.2,1.2,0,0,1-1.087-1.694,17.328,17.328,0,0,0-7.076-22.265,1.2,1.2,0,1,1,1.2-2.068,19.711,19.711,0,0,1,8.048,25.329A1.2,1.2,0,0,1,63.1,130.911Z" transform="translate(12.771 5.28)"></path><path class="a" d="M55.049,162.472a2.436,2.436,0,0,1-2.437-2.4L52.51,154a28.356,28.356,0,0,1-7.083-2.821l-4.241,4.388a2.439,2.439,0,0,1-3.447.058l-6.405-6.193a2.441,2.441,0,0,1-.06-3.447l4.242-4.387a27.3,27.3,0,0,1-3.015-6.934l-6.119.054a2.478,2.478,0,0,1-1.736-.685,2.426,2.426,0,0,1-.743-1.712l-.15-8.909a2.442,2.442,0,0,1,2.4-2.479l6.077-.1a28.375,28.375,0,0,1,2.819-7.082l-4.388-4.242a2.441,2.441,0,0,1-.058-3.447l6.193-6.406a2.419,2.419,0,0,1,1.712-.744,2.326,2.326,0,0,1,1.735.686l4.388,4.241a27.309,27.309,0,0,1,6.933-3.015L51.508,94.7a2.437,2.437,0,0,1,2.4-2.479l8.91-.15a2.476,2.476,0,0,1,1.735.685,2.427,2.427,0,0,1,.743,1.712l.1,6.077a28.354,28.354,0,0,1,7.082,2.819l4.242-4.388a2.437,2.437,0,0,1,3.446-.058l6.407,6.194a2.439,2.439,0,0,1,.058,3.446l-4.242,4.388a27.3,27.3,0,0,1,3.016,6.934l6.118-.054a2.5,2.5,0,0,1,1.736.685A2.423,2.423,0,0,1,94,122.224l.152,8.91a2.442,2.442,0,0,1-2.4,2.478l-6.077.1a28.346,28.346,0,0,1-2.821,7.082l4.388,4.242a2.438,2.438,0,0,1,.058,3.447l-6.193,6.406a2.441,2.441,0,0,1-3.447.058l-4.388-4.242a27.237,27.237,0,0,1-6.933,3.015l.054,6.121a2.44,2.44,0,0,1-2.4,2.478l-8.909.152Zm-9.826-14a1.2,1.2,0,0,1,.627.177,24.821,24.821,0,0,0,7.174,2.982,2.448,2.448,0,0,1,1.88,2.327l.1,6.077,8.955-.108-.06-6.122a2.446,2.446,0,0,1,1.8-2.388,24.862,24.862,0,0,0,7.069-3.223,1.2,1.2,0,0,1,1.491.137l5.99,5.729-.86-.832,6.193-6.407-5.066-4.961a1.2,1.2,0,0,1-.189-1.485,24.878,24.878,0,0,0,2.982-7.174,2.446,2.446,0,0,1,2.326-1.88l6.077-.1-.106-8.954-6.122.058a2.458,2.458,0,0,1-2.388-1.8,24.854,24.854,0,0,0-3.223-7.067,1.2,1.2,0,0,1,.137-1.493l4.9-5.066L78.5,100.64l-4.961,5.067a1.2,1.2,0,0,1-1.487.187,24.875,24.875,0,0,0-7.172-2.982A2.446,2.446,0,0,1,63,100.586l-.1-6.077-8.954.106L54,100.738a2.446,2.446,0,0,1-1.8,2.388,24.883,24.883,0,0,0-7.069,3.225,1.193,1.193,0,0,1-1.491-.139l-5.066-4.9-6.257,6.407,5.067,4.961a1.2,1.2,0,0,1,.187,1.487,24.9,24.9,0,0,0-2.982,7.174,2.448,2.448,0,0,1-2.326,1.88l-6.077.1.106,8.954,6.123-.06a2.457,2.457,0,0,1,2.387,1.8,24.854,24.854,0,0,0,3.223,7.067,1.2,1.2,0,0,1-.137,1.491l-4.9,5.066L39.4,153.9l4.961-5.066A1.2,1.2,0,0,1,45.223,148.472Z" transform="translate(0)"></path><path class="a" d="M50.8,117.97a7.517,7.517,0,1,1,7.515-7.517A7.525,7.525,0,0,1,50.8,117.97Zm0-12.641a5.123,5.123,0,1,0,5.123,5.124A5.13,5.13,0,0,0,50.8,105.329Z" transform="translate(8.153 4.535)"></path><path class="a" d="M65.994,134.834H39.977a1.934,1.934,0,0,1-1.931-1.933V118.269a4.473,4.473,0,0,1,2.839-4.145,1.389,1.389,0,0,1,.17-.052l5.534-1.237a1.2,1.2,0,1,1,.522,2.335l-5.435,1.218a2.061,2.061,0,0,0-1.237,1.882v14.172H65.533V118.269a2.063,2.063,0,0,0-1.237-1.882l-5.436-1.218a1.2,1.2,0,0,1,.523-2.335l5.532,1.237a1.491,1.491,0,0,1,.172.052,4.473,4.473,0,0,1,2.839,4.145V132.9A1.935,1.935,0,0,1,65.994,134.834Z" transform="translate(5.967 8.655)"></path><path class="a" d="M42.745,132.016a1.2,1.2,0,0,1-1.2-1.2V120.75a1.2,1.2,0,1,1,2.393,0v10.07A1.2,1.2,0,0,1,42.745,132.016Z" transform="translate(7.429 11.472)"></path><path class="a" d="M55.13,132.016a1.2,1.2,0,0,1-1.2-1.2V120.75a1.2,1.2,0,1,1,2.393,0v10.07A1.2,1.2,0,0,1,55.13,132.016Z" transform="translate(12.599 11.472)"></path></g></g></svg>