<svg xmlns="http://www.w3.org/2000/svg" width="60" height="60" viewBox="0 0 53.321 63.999"><defs><style>.a{fill:#92a309;}</style></defs><g transform="translate(-735 -4261)"><g transform="translate(692.286 4261)"><path class="a" d="M131.543,117.864a10.935,10.935,0,0,0-15.447,0l-3.262,3.262a.936.936,0,0,0,1.324,1.324l3.262-3.262a9.061,9.061,0,0,1,12.8,0l2.246,2.246a9.05,9.05,0,0,1,0,12.8l-1.783,1.783a10.965,10.965,0,0,0-1.23-1.464l-1.3-1.3,1.666-1.666a5.306,5.306,0,0,0,0-7.5l-2.246-2.246a5.311,5.311,0,0,0-7.5,0l-6.915,6.915a5.306,5.306,0,0,0,0,7.5L115.4,138.5a5.31,5.31,0,0,0,7.457.044l1.3,1.3a3.37,3.37,0,0,1,.932,1.731,9.062,9.062,0,0,1-12.337-.429L110.5,138.9a9.05,9.05,0,0,1,0-12.8l.748-.748a.936.936,0,1,0-1.324-1.324l-.748.748a10.937,10.937,0,0,0-2.2,12.3l-2.139,2.14a10.92,10.92,0,0,0,0,15.446l2.245,2.247a10.851,10.851,0,0,0,7.724,3.2.936.936,0,0,0,0-1.872,8.992,8.992,0,0,1-6.4-2.65l-2.246-2.247a9.048,9.048,0,0,1,0-12.8l1.784-1.785a11.043,11.043,0,0,0,1.229,1.467l1.3,1.3-1.665,1.665a5.3,5.3,0,0,0,0,7.5l2.244,2.246a5.307,5.307,0,0,0,7.5,0l6.916-6.916a5.394,5.394,0,0,0,1.537-4.167,5.288,5.288,0,0,0-1.536-3.336l-2.246-2.247a5.306,5.306,0,0,0-7.457-.044l-1.3-1.3a3.409,3.409,0,0,1-.935-1.73,9.051,9.051,0,0,1,12.34.427l2.246,2.247a9.051,9.051,0,0,1,0,12.8l-6.916,6.916a9.054,9.054,0,0,1-2.474,1.761.936.936,0,0,0,.813,1.686,10.918,10.918,0,0,0,2.985-2.123L129.451,150a10.94,10.94,0,0,0,2.2-12.3l2.14-2.14a10.923,10.923,0,0,0,0-15.447Zm-14.3,33.754a3.464,3.464,0,0,1-4.855,0l-2.246-2.247a3.432,3.432,0,0,1,0-4.855l1.674-1.675a10.945,10.945,0,0,0,12.72,1.413,3.466,3.466,0,0,1-.378.449ZM121.5,137.25a3.439,3.439,0,0,1-4.37.276,3.434,3.434,0,0,1,4.37-.276Zm-2.019-8.144a10.885,10.885,0,0,0-5.382,1.415,3.476,3.476,0,0,1,.376-.446l6.915-6.915a3.439,3.439,0,0,1,4.856,0l2.246,2.246a3.433,3.433,0,0,1,0,4.856l-1.675,1.675A10.848,10.848,0,0,0,119.482,129.106Z" transform="translate(-51.564 -100.336)"></path><path class="a" d="M96.035,4.819A4.824,4.824,0,0,0,91.216,0H47.533a4.824,4.824,0,0,0-4.819,4.819V59.18A4.824,4.824,0,0,0,47.533,64H91.216a4.824,4.824,0,0,0,4.819-4.819ZM91.216,62.127H47.533a2.95,2.95,0,0,1-2.947-2.947V12.588H83.029a.936.936,0,0,0,0-1.872H44.586v-5.9a2.95,2.95,0,0,1,2.947-2.947H91.216a2.95,2.95,0,0,1,2.947,2.947v5.9H87.491a.936.936,0,1,0,0,1.872h6.671V59.18A2.95,2.95,0,0,1,91.216,62.127Z"></path><circle class="a" cx="1.742" cy="1.742" r="1.742" transform="translate(48.328 4.681) rotate(-4.069)"></circle><circle class="a" cx="1.742" cy="1.742" r="1.742" transform="translate(53.8 4.552)"></circle><circle class="a" cx="1.742" cy="1.742" r="1.742" transform="translate(59.158 4.552)"></circle></g></g></svg>