<svg xmlns="http://www.w3.org/2000/svg" width="60" height="60" viewBox="0 0 57.893 57.893"><defs><style>.a{fill:#92a309;}</style></defs><g transform="translate(-1246 -3617.053)"><g transform="translate(1246 3617.053)"><path class="a" d="M51.109,12.664a6.783,6.783,0,0,0-6.784,6.784V21.71H36.148c2.725-4.66,4.106-8.155,4.106-10.4a11.307,11.307,0,0,0-22.615,0c0,2.248,1.381,5.743,4.106,10.4H13.569V19.449A6.784,6.784,0,1,0,0,19.449v6.332a1.131,1.131,0,1,0,2.261,0V19.449a4.523,4.523,0,1,1,9.046,0V46.056a6.77,6.77,0,0,0-9.046,0V34.826a1.131,1.131,0,0,0-2.261,0V51.109a6.971,6.971,0,0,0,7.107,6.784h44a6.792,6.792,0,0,0,6.784-6.784V19.449a6.792,6.792,0,0,0-6.784-6.784Zm-4.523,6.784a4.523,4.523,0,0,1,9.046,0V46.026a6.608,6.608,0,0,0-2.734-1.47,6.823,6.823,0,0,0-6.312,1.5v-26.6Zm-2.261,15.83H29.851L17.979,23.971h5.137c2.469,3.943,4.9,7.2,4.925,7.236a1.131,1.131,0,0,0,1.811,0c.025-.034,2.457-3.292,4.925-7.236h9.547ZM28.947,2.261a9.056,9.056,0,0,1,9.046,9.046c0,4.2-6.623,13.907-9.046,17.3C26.486,25.16,19.9,15.467,19.9,11.307A9.056,9.056,0,0,1,28.947,2.261ZM2.261,51.109a4.523,4.523,0,0,1,9.046,0,1.131,1.131,0,0,0,2.261,0V32.263L25.046,43.194,11.986,55.632H7.107A4.7,4.7,0,0,1,2.261,51.109Zm25.2-7.1a1.13,1.13,0,0,0,0-1.638l-13.9-13.234V23.971H14.7l13.92,13.257a1.131,1.131,0,0,0,.78.312H44.325v4.523H35.731a1.131,1.131,0,0,0-.8.331L21.694,55.632H15.265ZM51.109,55.632H24.892L36.2,44.325h8.125v6.784a1.131,1.131,0,0,0,2.261,0,4.534,4.534,0,0,1,5.746-4.364,4.453,4.453,0,0,1,3.3,4.364,4.528,4.528,0,0,1-4.523,4.523Zm0,0"></path><path class="a" d="M211.654,61.307A5.654,5.654,0,1,0,206,55.654,5.66,5.66,0,0,0,211.654,61.307Zm0-9.046a3.392,3.392,0,1,1-3.392,3.392A3.4,3.4,0,0,1,211.654,52.261Zm0,0" transform="translate(-182.707 -44.346)"></path><path class="a" d="M1.131,260.261A1.131,1.131,0,1,0,0,259.131,1.131,1.131,0,0,0,1.131,260.261Zm0,0" transform="translate(0 -228.827)"></path></g></g></svg>