<svg xmlns="http://www.w3.org/2000/svg" width="60" height="60" viewBox="0 0 57.801 57.8"><defs><style>.a{fill:#92a309;}</style></defs><g transform="translate(-189 -9559)"><g transform="translate(-192.461 9334.97)"><path class="a" d="M407.732,270.6a.932.932,0,0,1-.932-.93l-.01-4.364a.932.932,0,1,1,1.864,0l.011,4.363a.932.932,0,0,1-.931.934Z" transform="translate(2.642 4.209)"></path><path class="a" d="M403.489,253.377a5.778,5.778,0,1,1,.012,0Zm0-9.708a3.921,3.921,0,1,0,2.765,1.142A3.9,3.9,0,0,0,403.489,243.669Z" transform="translate(1.694 1.854)"></path><path class="a" d="M398.427,270.625a.931.931,0,0,1-.932-.93l-.01-4.387a.932.932,0,1,1,1.864,0l.01,4.387a.932.932,0,0,1-.93.934Z" transform="translate(1.672 4.209)"></path><path class="a" d="M404.453,265.219a18.2,18.2,0,0,1,0-36.391.932.932,0,1,1,0,1.864,16.328,16.328,0,1,0,15.514,21.444.932.932,0,0,1,1.771.581,18.212,18.212,0,0,1-17.285,12.5Z" transform="translate(0.501 0.5)"></path><path class="a" d="M404.313,230.756c-.027,0-.054,0-.082,0-.463-.041-.938-.061-1.408-.061a.932.932,0,0,1,0-1.864c.525,0,1.052.022,1.57.067a.932.932,0,0,1-.081,1.861Z" transform="translate(2.131 0.5)"></path><path class="a" d="M419.628,248.589a.938.938,0,0,1-.932-.97c.008-.219.012-.436.012-.655a16.252,16.252,0,0,0-.183-2.448.933.933,0,0,1,1.844-.278,18.363,18.363,0,0,1,.2,2.728c0,.243,0,.486-.015.73A.931.931,0,0,1,419.628,248.589Zm-.977-6.47a.932.932,0,0,1-.879-.62,16.376,16.376,0,0,0-1.312-2.817.932.932,0,1,1,1.606-.945,18.189,18.189,0,0,1,1.463,3.138.93.93,0,0,1-.878,1.243Zm-3.318-5.635a.932.932,0,0,1-.7-.316q-.34-.386-.708-.754a16.711,16.711,0,0,0-1.559-1.375.932.932,0,0,1,1.143-1.472,18.187,18.187,0,0,1,1.734,1.53q.411.409.789.838a.932.932,0,0,1-.7,1.549Zm-5.174-4a.923.923,0,0,1-.42-.1,16.4,16.4,0,0,0-2.894-1.13.931.931,0,1,1,.508-1.792,18.177,18.177,0,0,1,3.227,1.258.932.932,0,0,1-.421,1.765Z" transform="translate(2.577 0.562)"></path><path class="a" d="M417.673,251.353a.931.931,0,0,1-.886-1.222c.146-.445.275-.9.382-1.358a.932.932,0,0,1,1.814.427c-.119.509-.263,1.018-.425,1.513A.932.932,0,0,1,417.673,251.353Z" transform="translate(3.68 2.506)"></path><path class="a" d="M404.954,271.017a23.493,23.493,0,1,1,16.62-6.873A23.433,23.433,0,0,1,404.954,271.017Zm0-45.123a21.629,21.629,0,1,0,15.3,6.328A21.572,21.572,0,0,0,404.954,225.894Z" transform="translate(0 0)"></path><path class="a" d="M430.731,278.5a5.193,5.193,0,0,1-3.683-1.523l-13.431-13.431a.931.931,0,0,1,.136-1.43,21.6,21.6,0,0,0,5.8-5.8.931.931,0,0,1,1.43-.136l13.431,13.431a5.205,5.205,0,0,1-3.682,8.888Zm-15.018-15.492,12.652,12.652a3.344,3.344,0,0,0,4.73-4.73l-12.653-12.652a23.427,23.427,0,0,1-2.193,2.536A23.672,23.672,0,0,1,415.713,263.012Z" transform="translate(3.326 3.326)"></path><path class="a" d="M425.407,270.348a.93.93,0,0,1-.659-.274l-8.869-8.869a.932.932,0,0,1,1.319-1.317l8.869,8.869a.933.933,0,0,1-.659,1.591Z" transform="translate(3.562 3.712)"></path><path class="a" d="M404.954,271.017a23.493,23.493,0,1,1,16.62-6.873A23.433,23.433,0,0,1,404.954,271.017Zm0-45.123a21.629,21.629,0,1,0,15.3,6.328A21.572,21.572,0,0,0,404.954,225.894Z" transform="translate(0 0)"></path><path class="a" d="M403.621,262.693a18.153,18.153,0,0,1-8.93-2.344.933.933,0,0,1-.475-.809v-.306a6.209,6.209,0,0,1,5.493-6.186,62.084,62.084,0,0,1,8.308-.02,6.213,6.213,0,0,1,5.523,6.162,1,1,0,0,1-.445.84A18.151,18.151,0,0,1,403.621,262.693Zm-7.535-3.707a16.314,16.314,0,0,0,15.563-.268,4.351,4.351,0,0,0-3.84-3.839,34.328,34.328,0,0,0-3.931-.117,33.582,33.582,0,0,0-3.952.136A4.349,4.349,0,0,0,396.087,258.986Z" transform="translate(1.331 3.011)"></path><path class="a" d="M397.106,270.751a2.754,2.754,0,0,1-2.868-2.756l-.009-3.624a.932.932,0,0,1,1.281-.867,21.8,21.8,0,0,0,16.74-.222.932.932,0,0,1,1.3.853l.009,3.819a2.763,2.763,0,0,1-2.863,2.766l-13.585.032Zm-1.009-5.043.005,2.285a1.069,1.069,0,0,0,.009.135.973.973,0,0,0,.995.76l13.589-.032a.974.974,0,0,0,.995-.765,1.048,1.048,0,0,0,.009-.135l-.007-2.445A23.725,23.725,0,0,1,396.1,265.707Z" transform="translate(1.332 4.087)"></path><path class="a" d="M398.426,261.582a.932.932,0,0,1-.932-.932v-2.7a.932.932,0,1,1,1.864,0v2.7A.932.932,0,0,1,398.426,261.582Z" transform="translate(1.673 3.441)"></path><path class="a" d="M407.731,261.388a.932.932,0,0,1-.932-.932v-2.5a.933.933,0,0,1,1.865,0v2.5A.932.932,0,0,1,407.731,261.388Z" transform="translate(2.643 3.441)"></path></g></g></svg>