<svg xmlns="http://www.w3.org/2000/svg" width="60" height="60" viewBox="0 0 58.902 58.334">
<style type="text/css">
	.st0{fill:#92A309;}
</style>
<g id="_x30_14---Keyword-Research">
	<path id="Shape" class="st0" d="M27.2,58.8c1.1,1.1,2.9,1.5,4.4,0.9C33,59.1,34,57.6,34,56v-8h14c3.3,0,6-2.7,6-6V6
		c0-3.3-2.7-6-6-6H12C8.7,0,6,2.7,6,6v36c0,3.3,2.7,6,6,6h14v8C26,57.1,26.4,58.1,27.2,58.8z M14,13c-0.6,0-1-0.4-1-1V8
		c0-0.6,0.4-1,1-1h5v6H14z M21,7h25c0.6,0,1,0.4,1,1v4c0,0.6-0.4,1-1,1H21V7z M30,41c-7.2,0-13-5.8-13-13s5.8-13,13-13s13,5.8,13,13
		C43,35.2,37.2,41,30,41z M30,58c-1.1,0-2-0.9-2-2V42.9c1.3,0.2,2.7,0.2,4,0V56C32,57.1,31.1,58,30,58z M12,46c-2.2,0-4-1.8-4-4V6
		c0-2.2,1.8-4,4-4h36c2.2,0,4,1.8,4,4v36c0,2.2-1.8,4-4,4H34v-3.6c5.8-1.6,10.1-6.6,10.9-12.6S42.7,18,37.5,15H46c1.7,0,3-1.3,3-3V8
		c0-1.7-1.3-3-3-3H14c-1.7,0-3,1.3-3,3v4c0,1.7,1.3,3,3,3h8.5c-5.3,3-8.2,8.9-7.4,14.9s5,11,10.9,12.6V46H12z"/>
	<path id="Path" class="st0" d="M25,21h10c0.6,0,1-0.4,1-1s-0.4-1-1-1H25c-0.6,0-1,0.4-1,1S24.4,21,25,21z"/>
	<path id="Path_1_" class="st0" d="M26,24c0,0.6,0.4,1,1,1h11c0.6,0,1-0.4,1-1s-0.4-1-1-1H27C26.4,23,26,23.4,26,24z"/>
	<path id="Path_2_" class="st0" d="M22,25h1c0.6,0,1-0.4,1-1s-0.4-1-1-1h-1c-0.6,0-1,0.4-1,1S21.4,25,22,25z"/>
	<path id="Path_3_" class="st0" d="M35,35H25c-0.6,0-1,0.4-1,1s0.4,1,1,1h10c0.6,0,1-0.4,1-1S35.6,35,35,35z"/>
	<path id="Path_4_" class="st0" d="M38,31H27c-0.6,0-1,0.4-1,1s0.4,1,1,1h11c0.6,0,1-0.4,1-1S38.6,31,38,31z"/>
	<path id="Path_5_" class="st0" d="M23,31h-1c-0.6,0-1,0.4-1,1s0.4,1,1,1h1c0.6,0,1-0.4,1-1S23.6,31,23,31z"/>
	<path id="Path_6_" class="st0" d="M41,28c0-0.6-0.4-1-1-1h-1c-0.6,0-1,0.4-1,1s0.4,1,1,1h1C40.6,29,41,28.6,41,28z"/>
	<path id="Path_7_" class="st0" d="M36,28c0-0.6-0.4-1-1-1H20c-0.6,0-1,0.4-1,1s0.4,1,1,1h15C35.6,29,36,28.6,36,28z"/>
	<path id="Path_8_" class="st0" d="M38,10c0-0.6-0.4-1-1-1H25c-0.6,0-1,0.4-1,1c0,0.6,0.4,1,1,1h12C37.6,11,38,10.6,38,10z"/>
	<path id="Path_9_" class="st0" d="M41,11h2c0.6,0,1-0.4,1-1c0-0.6-0.4-1-1-1h-2c-0.6,0-1,0.4-1,1C40,10.6,40.4,11,41,11z"/>
</g>
</svg>
