<svg xmlns="http://www.w3.org/2000/svg" width="60" height="60" viewBox="0 0 58.902 58.334"><defs><style>.a{fill:#92a309;}</style></defs><g transform="translate(-1246 -4896.155)"><g transform="translate(1246 4896.155)"><g transform="translate(0 0)"><g transform="translate(0 0)"><path class="a" d="M53.72,2.467H4.577A4.582,4.582,0,0,0,0,7.044V34.713a4.582,4.582,0,0,0,4.577,4.577H15.9a1.155,1.155,0,1,0,0-2.31H4.577A2.269,2.269,0,0,1,2.31,34.713V7.044A2.269,2.269,0,0,1,4.577,4.777H53.72a2.269,2.269,0,0,1,2.267,2.267V34.713a2.269,2.269,0,0,1-2.267,2.267H50.252a1.155,1.155,0,0,0,0,2.31H53.72A4.582,4.582,0,0,0,58.3,34.713V7.044A4.582,4.582,0,0,0,53.72,2.467Z" transform="translate(0 -2.467)"></path></g></g><g transform="translate(33.638 33.102)"><path class="a" d="M317.657,299.534a2.224,2.224,0,0,0-1.455-2.021h0l-19.1-7.087a3.488,3.488,0,0,0-4.483,4.482l7.069,19.071a2.222,2.222,0,0,0,2.031,1.456h.064a2.222,2.222,0,0,0,2.045-1.341l1.955-4.489,4.239,4.241a3.1,3.1,0,0,0,4.377,0l1.635-1.635a3.1,3.1,0,0,0,0-4.377l-4.186-4.187,4.488-2A2.224,2.224,0,0,0,317.657,299.534Zm-8.284,2.689a1.155,1.155,0,0,0-.346,1.871l5.372,5.374a.786.786,0,0,1,0,1.111l-1.635,1.635a.78.78,0,0,1-.555.23h0a.78.78,0,0,1-.555-.23l-5.438-5.439a1.155,1.155,0,0,0-1.876.355L301.785,313l-7-18.89a1.161,1.161,0,0,1,.272-1.242,1.148,1.148,0,0,1,1.242-.271l18.924,7.021Zm6.027-2.544h0l.4-1.083Z" transform="translate(-292.395 -290.203)"></path></g><g transform="translate(27.658 27.116)"><g transform="translate(0 0)"><path class="a" d="M245.654,241.773l-3.264-3.264a1.155,1.155,0,0,0-1.633,1.633l3.264,3.264a1.155,1.155,0,0,0,1.633-1.633Z" transform="translate(-240.419 -238.171)"></path></g></g><g transform="translate(23.922 34.522)"><path class="a" d="M213.708,302.551h-4.616a1.155,1.155,0,0,0,0,2.31h4.616a1.155,1.155,0,0,0,0-2.31Z" transform="translate(-207.938 -302.551)"></path></g><g transform="translate(35.164 23.28)"><path class="a" d="M306.82,204.824a1.155,1.155,0,0,0-1.155,1.155v4.616a1.155,1.155,0,0,0,2.31,0v-4.616A1.155,1.155,0,0,0,306.82,204.824Z" transform="translate(-305.665 -204.824)"></path></g><g transform="translate(40.78 25.087)"><path class="a" d="M359.715,220.873a1.155,1.155,0,0,0-1.633,0l-3.264,3.264a1.155,1.155,0,0,0,1.633,1.633l3.264-3.264A1.155,1.155,0,0,0,359.715,220.873Z" transform="translate(-354.479 -220.534)"></path></g><g transform="translate(26.319 39.548)"><path class="a" d="M234.012,346.575a1.155,1.155,0,0,0-1.633,0l-3.264,3.264a1.155,1.155,0,0,0,1.633,1.633l3.264-3.264A1.155,1.155,0,0,0,234.012,346.575Z" transform="translate(-228.777 -346.237)"></path></g><g transform="translate(19.32 34.508)"><ellipse class="a" cx="1.158" cy="1.158" rx="1.158" ry="1.158"></ellipse></g><g transform="translate(13.288 10.646)"><path class="a" d="M122.5,101.4a3.014,3.014,0,0,0,1.623-3.037c0-2.712-1.852-3.361-3.838-3.361H116.6c-.554,0-1.089.267-1.089.783V108.2c0,.4.42.764,1.089.764h4.049c2.158,0,3.819-1.069,3.819-4.049v-.4A2.868,2.868,0,0,0,122.5,101.4Zm-4.526-4.221h2.12a1.626,1.626,0,0,1,.019,3.246h-2.139Zm4.01,7.524c0,1.451-.687,2.082-1.852,2.082h-2.158v-4.412h2.158c1.165,0,1.852.535,1.852,2.024Z" transform="translate(-115.508 -95.003)"></path></g><g transform="translate(23.964 10.646)"><path class="a" d="M216.227,95c-.63,0-1.241.229-1.241.764V104.7a2.1,2.1,0,1,1-4.2,0V95.767c0-.535-.63-.764-1.241-.764-.63,0-1.241.229-1.241.764V104.7c0,3.189,2.005,4.373,4.583,4.373,2.559,0,4.583-1.184,4.583-4.373V95.767C217.469,95.232,216.838,95,216.227,95Z" transform="translate(-208.302 -95.003)"></path></g><g transform="translate(34.39 10.646)"><path class="a" d="M307.913,95a.747.747,0,0,0-.745.5l-2.922,5.519-2.9-5.519a.747.747,0,0,0-.764-.5c-.668,0-1.642.42-1.642,1.031a.747.747,0,0,0,.057.248l3.953,6.837a.478.478,0,0,1,.057.248v4.812c0,.516.63.783,1.241.783.63,0,1.241-.267,1.241-.783v-4.812a.477.477,0,0,1,.076-.248l3.934-6.837a.457.457,0,0,0,.057-.248C309.555,95.423,308.581,95,307.913,95Z" transform="translate(-298.937 -95.003)"></path></g></g></g></svg>