<!-- Generator: Adobe Illustrator 24.0.1, SVG Export Plug-In  -->
<svg version="1.1" xmlns="http://www.w3.org/2000/svg" xmlns:xlink="http://www.w3.org/1999/xlink" x="0px" y="0px" width="60"
	 height="60" viewBox="0 0 72.9 62.3" style="enable-background:new 0 0 72.9 62.3;" xml:space="preserve">
<style type="text/css">
	.st0{fill:#92A309;}
</style>
<defs>
</defs>
<g>
	<path class="st0" d="M32,53.3c-9.8,0-19.6,0-29.4,0c-2.1,0-2.6-0.5-2.6-2.6C0,34.7,0,18.6,0,2.6C0,0.5,0.5,0,2.5,0
		c19.6,0,39.3,0,58.9,0c2,0,2.6,0.5,2.6,2.6c0,16.1,0,32.2,0,48.3c0,2-0.5,2.5-2.5,2.5C51.7,53.3,41.9,53.3,32,53.3z M60.4,12.5
		c-19,0-37.9,0-56.8,0c0,9.5,0,18.9,0,28.3c19,0,37.9,0,56.8,0C60.4,31.4,60.4,22,60.4,12.5z M19.5,44.5c-2.4,0-4.7,0-7,0
		c0,1.8,0,3.5,0,5.2c2.4,0,4.6,0,7,0C19.5,48,19.5,46.2,19.5,44.5z M12.5,3.6c0,1.8,0,3.5,0,5.2c2.4,0,4.7,0,7,0c0-1.8,0-3.5,0-5.2
		C17.2,3.6,14.9,3.6,12.5,3.6z M30.2,3.6c-2.4,0-4.7,0-7,0c0,1.8,0,3.5,0,5.2c2.4,0,4.6,0,7,0C30.2,7.1,30.2,5.4,30.2,3.6z
		 M33.9,3.6c0,1.8,0,3.5,0,5.2c2.4,0,4.7,0,7,0c0-1.8,0-3.5,0-5.2C38.5,3.6,36.2,3.6,33.9,3.6z M51.5,8.8c0-1.8,0-3.5,0-5.2
		c-2.4,0-4.7,0-7,0c0,1.8,0,3.5,0,5.2C46.8,8.8,49.1,8.8,51.5,8.8z M30.2,44.5c-2.4,0-4.7,0-7,0c0,1.8,0,3.5,0,5.2c2.4,0,4.7,0,7,0
		C30.2,47.9,30.2,46.2,30.2,44.5z M33.9,49.7c2.4,0,4.7,0,7,0c0-1.8,0-3.5,0-5.2c-2.4,0-4.7,0-7,0C33.9,46.3,33.9,48,33.9,49.7z
		 M44.5,44.5c0,1.8,0,3.5,0,5.2c2.4,0,4.7,0,7,0c0-1.8,0-3.5,0-5.2C49.1,44.5,46.8,44.5,44.5,44.5z M8.8,3.6c-1.8,0-3.5,0-5.2,0
		c0,1.8,0,3.5,0,5.2c1.8,0,3.5,0,5.2,0C8.8,7.1,8.8,5.4,8.8,3.6z M8.8,49.7c0-1.8,0-3.5,0-5.2c-1.8,0-3.5,0-5.2,0c0,1.8,0,3.5,0,5.2
		C5.4,49.7,7,49.7,8.8,49.7z M60.4,44.5c-1.8,0-3.5,0-5.2,0c0,1.8,0,3.5,0,5.2c1.8,0,3.5,0,5.2,0C60.4,47.9,60.4,46.2,60.4,44.5z
		 M55.2,3.6c0,1.8,0,3.5,0,5.2c1.8,0,3.5,0,5.2,0c0-1.8,0-3.5,0-5.2C58.6,3.6,56.9,3.6,55.2,3.6z"/>
	<path class="st0" d="M69.3,12.5c-0.6,0-1.1-0.1-1.7-0.1c0-1.1,0-2.3,0-3.5c1.3,0,2.5-0.1,3.7,0c0.9,0.1,1.3,0.7,1.5,1.5
		c0.1,0.4,0,0.7,0,1.1c0,16,0,32,0,48.1c0,2.2-0.5,2.7-2.7,2.7c-19.6,0-39.1,0-58.7,0c-2.2,0-2.7-0.5-2.7-2.6c0-0.8,0-1.7,0-2.6
		c1.2,0,2.3,0,3.5,0c0,0.5,0.1,1,0.1,1.6c18.9,0,37.9,0,56.8,0C69.3,43.2,69.3,27.9,69.3,12.5z"/>
	<path class="st0" d="M24.9,26.6c0-2.2,0-4.5,0-6.7c0-1.9,1.3-2.7,2.9-1.7c4,2.2,7.9,4.5,11.8,6.8c1.6,0.9,1.6,2.5,0,3.4
		c-3.9,2.3-7.9,4.5-11.8,6.8c-1.6,0.9-2.9,0.2-2.9-1.8C24.9,31.1,24.9,28.9,24.9,26.6z M28.5,30.7c2.4-1.4,4.7-2.7,7-4
		c-2.4-1.4-4.7-2.7-7-4C28.5,25.4,28.5,28,28.5,30.7z"/>
</g>
</svg>
