<svg xmlns="http://www.w3.org/2000/svg" width="60" height="60" viewBox="0 0 56 56"><defs><style>.a{fill:#92a309;}</style></defs><g transform="translate(-1257 -6795)"><g transform="translate(1257 6795)"><path class="a" d="M52.509,18.882A3.5,3.5,0,0,0,56,15.391V6.9A3.5,3.5,0,0,0,52.509,3.4h-.123A3.572,3.572,0,0,0,48.822,0H7.178A3.572,3.572,0,0,0,3.615,3.4H3.492A3.5,3.5,0,0,0,0,6.9v8.5a3.5,3.5,0,0,0,3.491,3.491h.119v1.379H3.492A3.5,3.5,0,0,0,0,23.753v8.5A3.5,3.5,0,0,0,3.492,35.74h.119v1.378H3.492A3.5,3.5,0,0,0,0,40.61v8.5A3.5,3.5,0,0,0,3.492,52.6h.123A3.571,3.571,0,0,0,7.178,56H48.822a3.571,3.571,0,0,0,3.563-3.4h.123A3.5,3.5,0,0,0,56,49.106v-8.5a3.5,3.5,0,0,0-3.491-3.492H52.39V35.74h.119A3.5,3.5,0,0,0,56,32.248v-8.5a3.5,3.5,0,0,0-3.491-3.491H52.39V18.882ZM7.178,1.641H48.822A1.929,1.929,0,0,1,50.741,3.4H5.26A1.928,1.928,0,0,1,7.178,1.641ZM54.36,40.61v8.5a1.853,1.853,0,0,1-1.851,1.851H13.892a.821.821,0,0,0,0,1.641H50.741a1.928,1.928,0,0,1-1.918,1.763H7.178A1.928,1.928,0,0,1,5.26,52.6H8.97a.821.821,0,0,0,0-1.641H3.492a1.853,1.853,0,0,1-1.851-1.851v-8.5a1.853,1.853,0,0,1,1.851-1.851H52.509A1.853,1.853,0,0,1,54.36,40.61Zm0-16.858v8.5A1.853,1.853,0,0,1,52.509,34.1H45.062a.821.821,0,0,0,0,1.641h5.687v1.378H5.251V35.74H39.593a.821.821,0,0,0,0-1.641H3.491a1.853,1.853,0,0,1-1.851-1.851v-8.5A1.853,1.853,0,0,1,3.491,21.9H52.509a1.852,1.852,0,0,1,1.851,1.851Zm-3.611-3.491H5.251V18.882H8.861a.821.821,0,0,0,0-1.641H3.492a1.853,1.853,0,0,1-1.851-1.851V6.9A1.853,1.853,0,0,1,3.492,5.044H52.509A1.853,1.853,0,0,1,54.36,6.9v8.5a1.853,1.853,0,0,1-1.851,1.851h-.742a.8.8,0,0,0-.395,0H14.767a.821.821,0,0,0,0,1.641H50.749Zm0,0"></path><path class="a" d="M52.559,382.492a.821.821,0,0,0,0,1.641A.821.821,0,0,0,52.559,382.492Zm0,0" transform="translate(-46.104 -340.657)"></path><path class="a" d="M95.557,382.492a.821.821,0,0,0,0,1.641A.821.821,0,0,0,95.557,382.492Zm0,0" transform="translate(-84.399 -340.657)"></path><path class="a" d="M52.559,421.492a.821.821,0,0,0,0,1.641A.821.821,0,0,0,52.559,421.492Zm0,0" transform="translate(-46.104 -375.391)"></path><path class="a" d="M95.557,421.492a.821.821,0,0,0,0,1.641A.821.821,0,0,0,95.557,421.492Zm0,0" transform="translate(-84.399 -375.391)"></path><path class="a" d="M138.555,382.492a.821.821,0,0,0,0,1.641A.821.821,0,0,0,138.555,382.492Zm0,0" transform="translate(-122.695 -340.657)"></path><path class="a" d="M138.555,421.492a.821.821,0,0,0,0,1.641A.821.821,0,0,0,138.555,421.492Zm0,0" transform="translate(-122.695 -375.391)"></path><path class="a" d="M52.559,230.5a.821.821,0,0,0,0,1.64A.821.821,0,0,0,52.559,230.5Zm0,0" transform="translate(-46.104 -205.292)"></path><path class="a" d="M95.557,230.5a.821.821,0,0,0,0,1.64A.821.821,0,0,0,95.557,230.5Zm0,0" transform="translate(-84.399 -205.292)"></path><path class="a" d="M52.559,269.5a.821.821,0,0,0,0,1.641A.821.821,0,0,0,52.559,269.5Zm0,0" transform="translate(-46.104 -240.023)"></path><path class="a" d="M95.557,269.5a.821.821,0,0,0,0,1.641A.821.821,0,0,0,95.557,269.5Zm0,0" transform="translate(-84.399 -240.023)"></path><path class="a" d="M138.555,230.5a.821.821,0,0,0,0,1.64A.821.821,0,0,0,138.555,230.5Zm0,0" transform="translate(-122.695 -205.292)"></path><path class="a" d="M138.555,269.5a.821.821,0,0,0,0,1.641A.821.821,0,0,0,138.555,269.5Zm0,0" transform="translate(-122.695 -240.023)"></path><path class="a" d="M52.559,75.512a.821.821,0,0,0,0,1.641A.821.821,0,0,0,52.559,75.512Zm0,0" transform="translate(-46.104 -67.252)"></path><path class="a" d="M95.557,75.512a.821.821,0,0,0,0,1.641A.821.821,0,0,0,95.557,75.512Zm0,0" transform="translate(-84.399 -67.252)"></path><path class="a" d="M52.559,114.508a.821.821,0,0,0,0,1.641A.821.821,0,0,0,52.559,114.508Zm0,0" transform="translate(-46.104 -101.983)"></path><path class="a" d="M95.557,114.508a.821.821,0,0,0,0,1.641A.821.821,0,0,0,95.557,114.508Zm0,0" transform="translate(-84.399 -101.983)"></path><path class="a" d="M138.555,77.152a.821.821,0,0,0,0-1.641A.821.821,0,0,0,138.555,77.152Zm0,0" transform="translate(-122.695 -67.252)"></path><path class="a" d="M138.555,116.149a.821.821,0,0,0,0-1.641A.821.821,0,0,0,138.555,116.149Zm0,0" transform="translate(-122.695 -101.983)"></path><path class="a" d="M316.223,79.465A3.226,3.226,0,1,0,313,76.238,3.23,3.23,0,0,0,316.223,79.465Zm0-4.812a1.586,1.586,0,1,1-1.586,1.586A1.588,1.588,0,0,1,316.223,74.653Zm0,0" transform="translate(-278.762 -65.026)"></path><path class="a" d="M405.219,79.465a3.226,3.226,0,1,0-3.227-3.227A3.23,3.23,0,0,0,405.219,79.465Zm0-4.812a1.586,1.586,0,1,1-1.586,1.586A1.587,1.587,0,0,1,405.219,74.653Zm0,0" transform="translate(-358.024 -65.026)"></path><path class="a" d="M316.223,228a3.226,3.226,0,1,0,3.226,3.226A3.23,3.23,0,0,0,316.223,228Zm0,4.812a1.586,1.586,0,1,1,1.586-1.586A1.588,1.588,0,0,1,316.223,232.816Zm0,0" transform="translate(-278.762 -203.066)"></path><path class="a" d="M405.219,228a3.226,3.226,0,1,0,3.226,3.226A3.23,3.23,0,0,0,405.219,228Zm0,4.812a1.586,1.586,0,1,1,1.586-1.586A1.588,1.588,0,0,1,405.219,232.816Zm0,0" transform="translate(-358.024 -203.066)"></path><path class="a" d="M316.223,379.992a3.227,3.227,0,1,0,3.226,3.227A3.23,3.23,0,0,0,316.223,379.992Zm0,4.813a1.586,1.586,0,1,1,1.586-1.586A1.588,1.588,0,0,1,316.223,384.8Zm0,0" transform="translate(-278.762 -338.43)"></path><path class="a" d="M405.219,379.992a3.227,3.227,0,1,0,3.226,3.227A3.23,3.23,0,0,0,405.219,379.992Zm0,4.813a1.586,1.586,0,1,1,1.586-1.586A1.588,1.588,0,0,1,405.219,384.8Zm0,0" transform="translate(-358.024 -338.43)"></path></g></g></svg>